<?xml version="1.0" encoding="UTF-8"?><svg xmlns="http://www.w3.org/2000/svg" xmlns:xlink="http://www.w3.org/1999/xlink" fill-opacity="1" color-rendering="auto" color-interpolation="auto" text-rendering="auto" stroke="black" stroke-linecap="square" width="1462" stroke-miterlimit="10" shape-rendering="auto" stroke-opacity="1" fill="black" stroke-dasharray="none" font-weight="normal" stroke-width="1" height="1109" font-family="'Dialog'" font-style="normal" stroke-linejoin="miter" font-size="12px" stroke-dashoffset="0" image-rendering="auto">
  <!--Generated by ySVG 2.6-->
  <defs id="genericDefs"/>
  <g>
    <defs id="defs1">
      <clipPath clipPathUnits="userSpaceOnUse" id="clipPath1">
        <path d="M0 0 L1462 0 L1462 1109 L0 1109 L0 0 Z"/>
      </clipPath>
      <clipPath clipPathUnits="userSpaceOnUse" id="clipPath2">
        <path d="M35 -159 L1497 -159 L1497 950 L35 950 L35 -159 Z"/>
      </clipPath>
      <clipPath clipPathUnits="userSpaceOnUse" id="clipPath3">
        <path d="M0 0 L0 18 L93 18 L93 0 Z"/>
      </clipPath>
      <script type="text/ecmascript"><![CDATA[      var SVGDocument = null;
      var SVGRoot = null;
      var TrueCoords = null;
      var lastElement = null;
      var initialized = null;
      var tipGroup;
      function Init(evt)
      {
         SVGDocument = evt.target.ownerDocument;
         SVGRoot = SVGDocument.documentElement;
         TrueCoords = SVGRoot.createSVGPoint();
         initialized = evt;
      };
      function GetTrueCoords(evt)
      {
         var newScale = SVGRoot.currentScale;
         var translation = SVGRoot.currentTranslate;
         TrueCoords.x = (evt.clientX - translation.x)/newScale;
         TrueCoords.y = (evt.clientY - translation.y)/newScale;
      };
      function HideTooltip( evt )
      {
         if(initialized == null) {
           Init(evt);
         }
         if(tipGroup != null) {
           tipGroup.setAttributeNS(null, 'visibility', 'hidden');
         }
      };
      function ShowTooltip( evt )
      {
         if(initialized == null) {
           Init(evt);
         }
         GetTrueCoords( evt );
         var tipScale = 1/SVGRoot.currentScale;
         var targetElement = evt.currentTarget;
         if ( lastElement != targetElement )
         {
            var targetId = targetElement.getAttributeNS(null, 'id');
            var tipId = 'tooltip.' + targetId;
            tipGroup = SVGDocument.getElementById(tipId);
            var xPos = TrueCoords.x + (10 * tipScale);
            var yPos = TrueCoords.y + (10 * tipScale);
            tipGroup.setAttributeNS(null, 'transform', 'translate(' + xPos + ',' + yPos + ') scale(' + tipScale + ')');
            tipGroup.setAttributeNS(null, 'visibility', 'visible');
         }
      };
]]></script>
    </defs>
    <g fill="white" text-rendering="geometricPrecision" shape-rendering="geometricPrecision" transform="translate(-35,159)" stroke="white">
      <rect x="35" width="1462" height="1109" y="-159" clip-path="url(#clipPath2)" stroke="none"/>
    </g>
    <g id="y.node.0">
      <g fill="yellow" text-rendering="geometricPrecision" shape-rendering="geometricPrecision" transform="matrix(1,0,0,1,-35,159)" stroke="yellow">
        <rect x="118.5934" y="22.1406" width="244.9682" rx="4" ry="4" height="50.6346" stroke="none"/>
      </g>
      <g>
        <g font-size="16px" stroke-linecap="butt" transform="matrix(1,0,0,1,-35,159)" text-rendering="geometricPrecision" font-family="sans-serif" shape-rendering="geometricPrecision" stroke-miterlimit="1.45">
          <text x="136.5736" xml:space="preserve" y="43.6094" stroke="none">crm:E67_Birth / E69_Death</text>
        </g>
      </g>
      <g>
        <g text-rendering="geometricPrecision" stroke-miterlimit="1.45" shape-rendering="geometricPrecision" font-family="sans-serif" transform="matrix(1,0,0,1,-35,159)" stroke-linecap="butt">
          <text x="149.6606" xml:space="preserve" y="64.244" stroke="none">Ada's birth 1815, death 1852</text>
        </g>
      </g>
      <g text-rendering="geometricPrecision" stroke-miterlimit="1.45" shape-rendering="geometricPrecision" transform="matrix(1,0,0,1,-35,159)" stroke-linecap="butt">
        <rect x="118.5934" y="22.1406" fill="none" width="244.9682" rx="4" ry="4" height="50.6346"/>
      </g>
    </g>
    <g id="y.node.1">
      <g fill="yellow" text-rendering="geometricPrecision" shape-rendering="geometricPrecision" transform="matrix(1,0,0,1,-35,159)" stroke="yellow">
        <rect x="596.8017" y="22.8958" width="244.9682" rx="4" ry="4" height="49.8795" stroke="none"/>
      </g>
      <g>
        <g font-size="16px" stroke-linecap="butt" transform="matrix(1,0,0,1,-35,159)" text-rendering="geometricPrecision" font-family="sans-serif" shape-rendering="geometricPrecision" stroke-miterlimit="1.45">
          <text x="640.8093" xml:space="preserve" y="44.3645" stroke="none">crm:E52_Time-Span</text>
        </g>
      </g>
      <g>
        <g text-rendering="geometricPrecision" stroke-miterlimit="1.45" shape-rendering="geometricPrecision" font-family="sans-serif" transform="matrix(1,0,0,1,-35,159)" stroke-linecap="butt">
          <text x="658.0096" xml:space="preserve" y="64.244" stroke="none">1815 · 1842–43 · 1852</text>
        </g>
      </g>
      <g text-rendering="geometricPrecision" stroke-miterlimit="1.45" shape-rendering="geometricPrecision" transform="matrix(1,0,0,1,-35,159)" stroke-linecap="butt">
        <rect x="596.8017" y="22.8958" fill="none" width="244.9682" rx="4" ry="4" height="49.8795"/>
      </g>
    </g>
    <g id="y.node.2">
      <g fill="yellow" text-rendering="geometricPrecision" shape-rendering="geometricPrecision" transform="matrix(1,0,0,1,-35,159)" stroke="yellow">
        <rect x="1065.615" y="22.8958" width="244.9682" rx="4" ry="4" height="49.8795" stroke="none"/>
      </g>
      <g>
        <g font-size="16px" stroke-linecap="butt" transform="matrix(1,0,0,1,-35,159)" text-rendering="geometricPrecision" font-family="sans-serif" shape-rendering="geometricPrecision" stroke-miterlimit="1.45">
          <text x="1128.1616" xml:space="preserve" y="44.3645" stroke="none">frbroo:F1_Work</text>
        </g>
      </g>
      <g>
        <g text-rendering="geometricPrecision" stroke-miterlimit="1.45" shape-rendering="geometricPrecision" font-family="sans-serif" transform="matrix(1,0,0,1,-35,159)" stroke-linecap="butt">
          <text x="1111.4163" xml:space="preserve" y="64.244" stroke="none">the Notes as intellectual idea</text>
        </g>
      </g>
      <g text-rendering="geometricPrecision" stroke-miterlimit="1.45" shape-rendering="geometricPrecision" transform="matrix(1,0,0,1,-35,159)" stroke-linecap="butt">
        <rect x="1065.615" y="22.8958" fill="none" width="244.9682" rx="4" ry="4" height="49.8795"/>
      </g>
    </g>
    <g id="y.node.3">
      <g fill="yellow" text-rendering="geometricPrecision" shape-rendering="geometricPrecision" transform="matrix(1,0,0,1,-35,159)" stroke="yellow">
        <rect x="118.5934" y="265.1875" width="244.9682" rx="4" ry="4" height="50.6346" stroke="none"/>
      </g>
      <g>
        <g font-size="16px" stroke-linecap="butt" transform="matrix(1,0,0,1,-35,159)" text-rendering="geometricPrecision" font-family="sans-serif" shape-rendering="geometricPrecision" stroke-miterlimit="1.45">
          <text x="186.5228" xml:space="preserve" y="286.6562" stroke="none">crm:E55_Type</text>
        </g>
      </g>
      <g>
        <g text-rendering="geometricPrecision" stroke-miterlimit="1.45" shape-rendering="geometricPrecision" font-family="sans-serif" transform="matrix(1,0,0,1,-35,159)" stroke-linecap="butt">
          <text x="163.9332" xml:space="preserve" y="307.2909" stroke="none">Tutoring · Burial · Translation</text>
        </g>
      </g>
      <g text-rendering="geometricPrecision" stroke-miterlimit="1.45" shape-rendering="geometricPrecision" transform="matrix(1,0,0,1,-35,159)" stroke-linecap="butt">
        <rect x="118.5934" y="265.1875" fill="none" width="244.9682" rx="4" ry="4" height="50.6346"/>
      </g>
    </g>
    <g id="y.node.4">
      <g fill="yellow" text-rendering="geometricPrecision" shape-rendering="geometricPrecision" transform="matrix(1,0,0,1,-35,159)" stroke="yellow">
        <rect x="113.5934" y="134.2344" width="260.2872" rx="4" ry="4" height="57.4481" stroke="none"/>
      </g>
      <g>
        <g font-size="16px" stroke-linecap="butt" transform="matrix(1,0,0,1,-35,159)" text-rendering="geometricPrecision" font-family="sans-serif" shape-rendering="geometricPrecision" stroke-miterlimit="1.45">
          <text x="140.8815" xml:space="preserve" y="155.7031" stroke="none">crm:E5_Event / E7_Activity</text>
        </g>
      </g>
      <g>
        <g text-rendering="geometricPrecision" stroke-miterlimit="1.45" shape-rendering="geometricPrecision" font-family="sans-serif" transform="matrix(1,0,0,1,-35,159)" stroke-linecap="butt">
          <text x="156.2536" xml:space="preserve" y="175.6367" stroke="none">burial · introduction · tutoring</text>
        </g>
        <g text-rendering="geometricPrecision" stroke-miterlimit="1.45" shape-rendering="geometricPrecision" font-family="sans-serif" transform="matrix(1,0,0,1,-35,159)" stroke-linecap="butt">
          <text x="205.5778" xml:space="preserve" y="189.7695" stroke="none">collaboration</text>
        </g>
      </g>
      <g text-rendering="geometricPrecision" stroke-miterlimit="1.45" shape-rendering="geometricPrecision" transform="matrix(1,0,0,1,-35,159)" stroke-linecap="butt">
        <rect x="113.5934" y="134.2344" fill="none" width="260.2872" rx="4" ry="4" height="57.4481"/>
      </g>
    </g>
    <g id="y.node.5">
      <g fill="yellow" text-rendering="geometricPrecision" shape-rendering="geometricPrecision" transform="matrix(1,0,0,1,-35,159)" stroke="yellow">
        <rect x="604.4612" y="381.166" width="244.9682" rx="4" ry="4" height="50.6346" stroke="none"/>
      </g>
      <g>
        <g font-size="16px" stroke-linecap="butt" transform="matrix(1,0,0,1,-35,159)" text-rendering="geometricPrecision" font-family="sans-serif" shape-rendering="geometricPrecision" stroke-miterlimit="1.45">
          <text x="665.0117" xml:space="preserve" y="402.6348" stroke="none">crm:E21_Person</text>
        </g>
      </g>
      <g>
        <g text-rendering="geometricPrecision" stroke-miterlimit="1.45" shape-rendering="geometricPrecision" font-family="sans-serif" transform="matrix(1,0,0,1,-35,159)" stroke-linecap="butt">
          <text x="635.6817" xml:space="preserve" y="423.2694" stroke="none">Ada · Babbage · Byron · Somerville</text>
        </g>
      </g>
      <g text-rendering="geometricPrecision" stroke-miterlimit="1.45" shape-rendering="geometricPrecision" transform="matrix(1,0,0,1,-35,159)" stroke-linecap="butt">
        <rect x="604.4612" y="381.166" fill="none" width="244.9682" rx="4" ry="4" height="50.6346"/>
      </g>
    </g>
    <g id="y.node.6">
      <g fill="yellow" text-rendering="geometricPrecision" shape-rendering="geometricPrecision" transform="matrix(1,0,0,1,-35,159)" stroke="yellow">
        <rect x="118.5934" y="430.3399" width="244.9682" rx="4" ry="4" height="50.6346" stroke="none"/>
      </g>
      <g>
        <g font-size="16px" stroke-linecap="butt" transform="matrix(1,0,0,1,-35,159)" text-rendering="geometricPrecision" font-family="sans-serif" shape-rendering="geometricPrecision" stroke-miterlimit="1.45">
          <text x="185.5462" xml:space="preserve" y="451.8087" stroke="none">crm:E53_Place</text>
        </g>
      </g>
      <g>
        <g text-rendering="geometricPrecision" stroke-miterlimit="1.45" shape-rendering="geometricPrecision" font-family="sans-serif" transform="matrix(1,0,0,1,-35,159)" stroke-linecap="butt">
          <text x="174.2044" xml:space="preserve" y="472.4433" stroke="none">London · Hucknall church</text>
        </g>
      </g>
      <g text-rendering="geometricPrecision" stroke-miterlimit="1.45" shape-rendering="geometricPrecision" transform="matrix(1,0,0,1,-35,159)" stroke-linecap="butt">
        <rect x="118.5934" y="430.3399" fill="none" width="244.9682" rx="4" ry="4" height="50.6346"/>
      </g>
    </g>
    <g id="y.node.7">
      <g fill="yellow" text-rendering="geometricPrecision" shape-rendering="geometricPrecision" transform="matrix(1,0,0,1,-35,159)" stroke="yellow">
        <rect x="1070.3064" y="358.6065" width="260.2872" rx="4" ry="4" height="53.6975" stroke="none"/>
      </g>
      <g>
        <g font-size="16px" stroke-linecap="butt" transform="matrix(1,0,0,1,-35,159)" text-rendering="geometricPrecision" font-family="sans-serif" shape-rendering="geometricPrecision" stroke-miterlimit="1.45">
          <text x="1082.2703" xml:space="preserve" y="380.0753" stroke="none">crm:E22_Human-Made_Object</text>
        </g>
      </g>
      <g>
        <g text-rendering="geometricPrecision" stroke-miterlimit="1.45" shape-rendering="geometricPrecision" font-family="sans-serif" transform="matrix(1,0,0,1,-35,159)" stroke-linecap="butt">
          <text x="1150.8884" xml:space="preserve" y="403.7728" stroke="none">Analytical Engine</text>
        </g>
      </g>
      <g text-rendering="geometricPrecision" stroke-miterlimit="1.45" shape-rendering="geometricPrecision" transform="matrix(1,0,0,1,-35,159)" stroke-linecap="butt">
        <rect x="1070.3064" y="358.6065" fill="none" width="260.2872" rx="4" ry="4" height="53.6975"/>
      </g>
    </g>
    <g id="y.node.8">
      <g fill="yellow" text-rendering="geometricPrecision" shape-rendering="geometricPrecision" transform="matrix(1,0,0,1,-35,159)" stroke="yellow">
        <rect x="1055.4659" y="278.2078" width="289.9682" rx="4" ry="4" height="50.6346" stroke="none"/>
      </g>
      <g>
        <g font-size="16px" stroke-linecap="butt" transform="matrix(1,0,0,1,-35,159)" text-rendering="geometricPrecision" font-family="sans-serif" shape-rendering="geometricPrecision" stroke-miterlimit="1.45">
          <text x="1061.4658" xml:space="preserve" y="299.6765" stroke="none">frbroo:F4_Manifestation_Singleton</text>
        </g>
      </g>
      <g>
        <g text-rendering="geometricPrecision" stroke-miterlimit="1.45" shape-rendering="geometricPrecision" font-family="sans-serif" transform="matrix(1,0,0,1,-35,159)" stroke-linecap="butt">
          <text x="1102.297" xml:space="preserve" y="315.7053" stroke="none">Taylor's Sci. Memoirs vol. 3, 1843</text>
        </g>
      </g>
      <g text-rendering="geometricPrecision" stroke-miterlimit="1.45" shape-rendering="geometricPrecision" transform="matrix(1,0,0,1,-35,159)" stroke-linecap="butt">
        <rect x="1055.4659" y="278.2078" fill="none" width="289.9682" rx="4" ry="4" height="50.6346"/>
      </g>
    </g>
    <g id="y.node.9">
      <g fill="yellow" text-rendering="geometricPrecision" shape-rendering="geometricPrecision" transform="matrix(1,0,0,1,-35,159)" stroke="yellow">
        <rect x="1065.615" y="137.9849" width="244.9682" rx="4" ry="4" height="53.6975" stroke="none"/>
      </g>
      <g>
        <g font-size="16px" stroke-linecap="butt" transform="matrix(1,0,0,1,-35,159)" text-rendering="geometricPrecision" font-family="sans-serif" shape-rendering="geometricPrecision" stroke-miterlimit="1.45">
          <text x="1105.5132" xml:space="preserve" y="159.4537" stroke="none">frbroo:F2_Expression</text>
        </g>
      </g>
      <g>
        <g text-rendering="geometricPrecision" stroke-miterlimit="1.45" shape-rendering="geometricPrecision" font-family="sans-serif" transform="matrix(1,0,0,1,-35,159)" stroke-linecap="butt">
          <text x="1113.2925" xml:space="preserve" y="174.9726" stroke="none">text of the Notes · Note G</text>
          <text x="1118.3608" xml:space="preserve" y="189.1054" stroke="none">Menabrea's 1842 article</text>
        </g>
      </g>
      <g text-rendering="geometricPrecision" stroke-miterlimit="1.45" shape-rendering="geometricPrecision" transform="matrix(1,0,0,1,-35,159)" stroke-linecap="butt">
        <rect x="1065.615" y="137.9849" fill="none" width="244.9682" rx="4" ry="4" height="53.6975"/>
      </g>
    </g>
    <g id="y.node.10">
      <g fill="yellow" text-rendering="geometricPrecision" shape-rendering="geometricPrecision" transform="matrix(1,0,0,1,-35,159)" stroke="yellow">
        <rect x="582.9354" y="137.6411" width="275.871" rx="4" ry="4" height="50.6346" stroke="none"/>
      </g>
      <g>
        <g font-size="16px" stroke-linecap="butt" transform="matrix(1,0,0,1,-35,159)" text-rendering="geometricPrecision" font-family="sans-serif" shape-rendering="geometricPrecision" stroke-miterlimit="1.45">
          <text x="596.3593" xml:space="preserve" y="159.1098" stroke="none">frbroo:F28_Expression_Creation</text>
        </g>
      </g>
      <g>
        <g text-rendering="geometricPrecision" stroke-miterlimit="1.45" shape-rendering="geometricPrecision" font-family="sans-serif" transform="matrix(1,0,0,1,-35,159)" stroke-linecap="butt">
          <text x="642.7714" xml:space="preserve" y="172.5333" stroke="none">Translation event 1842–43</text>
          <text x="648.5399" xml:space="preserve" y="186.6661" stroke="none">(the centre of the model)</text>
        </g>
      </g>
      <g text-rendering="geometricPrecision" stroke-miterlimit="1.45" shape-rendering="geometricPrecision" transform="matrix(1,0,0,1,-35,159)" stroke-linecap="butt">
        <rect x="582.9354" y="137.6411" fill="none" width="275.871" rx="4" ry="4" height="50.6346"/>
      </g>
    </g>
    <g id="y.node.11">
      <g fill="yellow" text-rendering="geometricPrecision" shape-rendering="geometricPrecision" transform="matrix(1,0,0,1,-35,159)" stroke="yellow">
        <rect x="1100.4659" y="480.4162" width="244.9682" rx="4" ry="4" height="49.8795" stroke="none"/>
      </g>
      <g>
        <g font-size="16px" stroke-linecap="butt" transform="matrix(1,0,0,1,-35,159)" text-rendering="geometricPrecision" font-family="sans-serif" shape-rendering="geometricPrecision" stroke-miterlimit="1.45">
          <text x="1145.2351" xml:space="preserve" y="501.8849" stroke="none">crm:E12_Production</text>
        </g>
      </g>
      <g>
        <g text-rendering="geometricPrecision" stroke-miterlimit="1.45" shape-rendering="geometricPrecision" font-family="sans-serif" transform="matrix(1,0,0,1,-35,159)" stroke-linecap="butt">
          <text x="1132.6423" xml:space="preserve" y="521.7645" stroke="none">design of the Engine (Babbage)</text>
        </g>
      </g>
      <g text-rendering="geometricPrecision" stroke-miterlimit="1.45" shape-rendering="geometricPrecision" transform="matrix(1,0,0,1,-35,159)" stroke-linecap="butt">
        <rect x="1100.4659" y="480.4162" fill="none" width="244.9682" rx="4" ry="4" height="49.8795"/>
      </g>
    </g>
    <g id="y.node.12">
      <g fill="yellow" text-rendering="geometricPrecision" shape-rendering="geometricPrecision" transform="matrix(1,0,0,1,-35,159)" stroke="yellow">
        <rect x="761.8172" y="478.031" width="244.9682" rx="4" ry="4" height="44" stroke="none"/>
      </g>
      <g>
        <g font-size="16px" stroke-linecap="butt" transform="matrix(1,0,0,1,-35,159)" text-rendering="geometricPrecision" font-family="sans-serif" shape-rendering="geometricPrecision" stroke-miterlimit="1.45">
          <text x="832.0279" xml:space="preserve" y="499.4998" stroke="none">skos:Concept</text>
        </g>
      </g>
      <g>
        <g text-rendering="geometricPrecision" stroke-miterlimit="1.45" shape-rendering="geometricPrecision" font-family="sans-serif" transform="matrix(1,0,0,1,-35,159)" stroke-linecap="butt">
          <text x="815.0817" xml:space="preserve" y="517.9514" stroke="none">Computing · Mathematics</text>
        </g>
      </g>
      <g text-rendering="geometricPrecision" stroke-miterlimit="1.45" shape-rendering="geometricPrecision" transform="matrix(1,0,0,1,-35,159)" stroke-linecap="butt">
        <rect x="761.8172" y="478.031" fill="none" width="244.9682" rx="4" ry="4" height="44"/>
      </g>
    </g>
    <g id="y.node.13">
      <g fill="rgb(231,230,230)" text-rendering="geometricPrecision" shape-rendering="geometricPrecision" transform="matrix(1,0,0,1,-35,159)" stroke="rgb(231,230,230)">
        <rect x="118.5934" width="1238.9017" height="78.5507" y="587.7579" stroke="none"/>
      </g>
      <g/>
      <g>
        <g font-size="25px" stroke-linecap="butt" transform="matrix(1,0,0,1,-35,159)" text-rendering="geometricPrecision" font-family="sans-serif" shape-rendering="geometricPrecision" stroke-miterlimit="1.45">
          <text x="346.7236" xml:space="preserve" y="636.4816" stroke="none">External authority files — Wikidata · VIAF · GeoNames · LCSH / LCCN</text>
        </g>
      </g>
      <g>
        <g fill="white" text-rendering="geometricPrecision" shape-rendering="geometricPrecision" transform="matrix(1,0,0,1,-35,159)" stroke="white">
          <rect x="61.6297" width="772.2061" height="65.2422" y="-143.3045" stroke="none"/>
          <rect x="61.6297" y="-143.3045" fill="none" width="772.2061" height="65.2422" stroke="black" stroke-miterlimit="1.6"/>
        </g>
        <g font-size="26px" stroke-linecap="butt" transform="matrix(1,0,0,1,-35,159)" text-rendering="geometricPrecision" font-family="sans-serif" shape-rendering="geometricPrecision" stroke-miterlimit="1.45">
          <text x="63.6297" xml:space="preserve" y="-116.1678" stroke="none">Conceptual model — Ada Lovelace LODLAM project (Graffoo)</text>
          <text x="100.4398" xml:space="preserve" y="-85.5467" stroke="none">A. Schema level : classes and properties (Event Centric)</text>
        </g>
      </g>
      <g text-rendering="geometricPrecision" stroke-miterlimit="1.45" shape-rendering="geometricPrecision" transform="matrix(1,0,0,1,-35,159)" stroke-linecap="butt">
        <rect fill="none" x="118.5934" width="1238.9017" height="78.5507" y="587.7579"/>
      </g>
    </g>
    <g id="y.edge.3">
      <g text-rendering="geometricPrecision" stroke-miterlimit="1.45" shape-rendering="geometricPrecision" transform="matrix(1,0,0,1,-35,159)" stroke-linecap="butt">
        <path fill="none" d="M363.5775 47.4579 L480.1817 47.4579 L480.1817 47.8355 L588.7858 47.8355"/>
        <path d="M596.7858 47.8355 L584.7858 42.8355 L587.7858 47.8355 L584.7858 52.8355 Z" stroke="none"/>
      </g>
      <g>
        <g stroke-linecap="butt" transform="matrix(1,0,0,1,-35,159)" fill="white" text-rendering="geometricPrecision" shape-rendering="geometricPrecision" stroke="white" stroke-miterlimit="1.45">
          <rect x="411.6807" width="137.002" height="18.1328" y="38.3915" stroke="none"/>
          <text fill="black" x="413.6807" xml:space="preserve" y="51.9931" font-family="sans-serif" stroke="none">crm:P4_has_time-span</text>
        </g>
      </g>
    </g>
    <g onmouseout="HideTooltip(evt)" id="y.edge.0" onmousemove="ShowTooltip(evt)">
      <g text-rendering="geometricPrecision" stroke-miterlimit="1.45" stroke-dasharray="6,2" shape-rendering="geometricPrecision" transform="matrix(1,0,0,1,-35,159)" stroke-linecap="butt">
        <path fill="none" d="M241.0775 72.7519 L241.0775 126.1963"/>
        <path d="M241.0775 134.1963 L246.0775 122.1963 L241.0775 125.1963 L236.0775 122.1963 Z" stroke="none"/>
      </g>
      <g/>
      <g>
        <g stroke-linecap="butt" transform="matrix(1,0,0,1,-35,159)" fill="white" text-rendering="geometricPrecision" shape-rendering="geometricPrecision" stroke-dasharray="6,2" stroke="white" stroke-miterlimit="1.45">
          <rect x="192.9408" width="96.2734" height="18.1328" y="94.4384" stroke="none"/>
        </g>
        <g text-rendering="geometricPrecision" stroke-miterlimit="1.45" shape-rendering="geometricPrecision" font-family="sans-serif" transform="matrix(1,0,0,1,-35,159)" stroke-linecap="butt">
          <text x="194.9408" xml:space="preserve" y="108.04" stroke="none">rdfs:subClassOf</text>
        </g>
      </g>
    </g>
    <g id="y.edge.1">
      <g text-rendering="geometricPrecision" stroke-miterlimit="1.45" shape-rendering="geometricPrecision" transform="matrix(1,0,0,1,-35,159)" stroke-linecap="butt">
        <path fill="none" d="M241.0775 191.7 L241.0775 257.1764"/>
        <path d="M241.0775 265.1764 L246.0775 253.1764 L241.0775 256.1764 L236.0775 253.1764 Z" stroke="none"/>
      </g>
      <g>
        <g stroke-linecap="butt" transform="matrix(1,0,0,1,-35,159)" fill="white" text-rendering="geometricPrecision" shape-rendering="geometricPrecision" stroke="white" stroke-miterlimit="1.45">
          <rect x="193.0046" width="101.4648" height="18.1328" y="212.6445" stroke="none"/>
          <text fill="black" x="195.0046" xml:space="preserve" y="226.2461" font-family="sans-serif" stroke="none">crm:P2_has_type</text>
        </g>
      </g>
    </g>
    <g id="y.edge.5">
      <g text-rendering="geometricPrecision" stroke-miterlimit="1.45" shape-rendering="geometricPrecision" transform="matrix(1,0,0,1,-35,159)" stroke-linecap="butt">
        <path fill="none" d="M363.569 66.8924 L511.6698 66.8924 L511.6698 391.7232 L596.46 391.7232"/>
        <path d="M604.46 391.7232 L592.46 386.7232 L595.46 391.7232 L592.46 396.7232 Z" stroke="none"/>
      </g>
      <g>
        <g stroke-linecap="butt" transform="matrix(1,0,0,1,-35,159)" fill="white" text-rendering="geometricPrecision" shape-rendering="geometricPrecision" stroke="white" stroke-miterlimit="1.45">
          <rect x="457.709" width="167.4648" height="32.2656" y="315.1753" stroke="none"/>
          <text fill="black" x="459.709" xml:space="preserve" y="328.7768" font-family="sans-serif" stroke="none">crm:P98_brought_into_life /</text>
          <text fill="black" x="471.4277" xml:space="preserve" y="342.9096" font-family="sans-serif" stroke="none">crm:P100_was_death_of</text>
        </g>
      </g>
      <g>
        <g stroke-linecap="butt" transform="matrix(1,0,0,1,-35,159)" fill="white" text-rendering="geometricPrecision" shape-rendering="geometricPrecision" stroke="white" stroke-miterlimit="1.45">
          <rect x="457.4545" width="169.7031" height="32.2656" y="348.0743" stroke="none"/>
          <text fill="black" x="459.4545" xml:space="preserve" y="361.6758" font-family="sans-serif" stroke="none">(E67) crm:P97_from_father /</text>
          <text fill="black" x="497.4379" xml:space="preserve" y="375.8087" font-family="sans-serif" stroke="none">P96_by_mother</text>
        </g>
      </g>
    </g>
    <g id="y.edge.19">
      <g text-rendering="geometricPrecision" stroke-miterlimit="1.45" shape-rendering="geometricPrecision" transform="matrix(1,0,0,1,-35,159)" stroke-linecap="butt">
        <path fill="none" d="M373.8862 162.9584 L412.4901 162.9584 L412.4901 420.788 L596.4407 420.788"/>
        <path d="M604.4407 420.788 L592.4407 415.788 L595.4407 420.788 L592.4407 425.788 Z" stroke="none"/>
      </g>
      <g>
        <g stroke-linecap="butt" transform="matrix(1,0,0,1,-35,159)" fill="white" text-rendering="geometricPrecision" shape-rendering="geometricPrecision" stroke="white" stroke-miterlimit="1.45">
          <rect x="423.4253" width="158.3594" height="32.2656" y="411.7232" stroke="none"/>
          <text fill="rgb(0,51,0)" x="425.4253" xml:space="preserve" y="425.3248" font-family="sans-serif" stroke="none">crm:P11_had_participant /</text>
          <text fill="rgb(0,51,0)" x="445.9858" xml:space="preserve" y="439.4576" font-family="sans-serif" stroke="none">P14_carried_out_by</text>
        </g>
      </g>
    </g>
    <g id="y.edge.2">
      <g text-rendering="geometricPrecision" stroke-miterlimit="1.45" shape-rendering="geometricPrecision" transform="matrix(1,0,0,1,-35,159)" stroke-linecap="butt">
        <path fill="none" d="M113.571 162.9584 L93.5934 162.9584 L93.5934 455.6572 L110.6182 455.6572"/>
        <path d="M118.6182 455.6572 L106.6182 450.6572 L109.6182 455.6572 L106.6182 460.6572 Z" stroke="none"/>
      </g>
      <g>
        <g stroke-linecap="butt" transform="matrix(1,0,0,1,-35,159)" fill="white" text-rendering="geometricPrecision" shape-rendering="geometricPrecision" stroke="white" stroke-miterlimit="1.45">
          <rect x="50.9644" width="130.1172" height="18.1328" y="371.0041" stroke="none"/>
          <text fill="black" x="52.9644" xml:space="preserve" y="384.6056" font-family="sans-serif" stroke="none">crm:P7_took_place_at</text>
        </g>
      </g>
      <g/>
    </g>
    <g id="y.edge.8">
      <g text-rendering="geometricPrecision" stroke-miterlimit="1.45" shape-rendering="geometricPrecision" transform="matrix(1,0,0,1,-35,159)" stroke-linecap="butt">
        <path fill="none" d="M1188.0991 72.7719 L1188.0991 129.9973"/>
        <path d="M1188.0991 137.9973 L1193.0991 125.9973 L1188.0991 128.9973 L1183.0991 125.9973 Z" stroke="none"/>
      </g>
      <g>
        <g stroke-linecap="butt" transform="matrix(1,0,0,1,-35,159)" fill="white" text-rendering="geometricPrecision" shape-rendering="geometricPrecision" stroke="white" stroke-miterlimit="1.45">
          <rect x="1116.3403" width="143.5176" height="18.1328" y="96.3137" stroke="none"/>
          <text fill="black" x="1118.3403" xml:space="preserve" y="109.9153" font-family="sans-serif" stroke="none">frbroo:R3_is_realised_in</text>
        </g>
      </g>
    </g>
    <g id="y.edge.12">
      <g text-rendering="geometricPrecision" stroke-miterlimit="1.45" shape-rendering="geometricPrecision" transform="matrix(1,0,0,1,-35,159)" stroke-linecap="butt">
        <path fill="none" d="M1281.2554 137.9459 L1281.2554 117.9849 L1374.4116 117.9849 L1374.4116 164.8337 L1318.6049 164.8337"/>
        <path d="M1310.6049 164.8337 L1322.6049 169.8337 L1319.6049 164.8337 L1322.6049 159.8337 Z" stroke="none"/>
      </g>
      <g>
        <g stroke-linecap="butt" transform="matrix(1,0,0,1,-35,159) translate(1318.0126,125.4093)" fill="white" text-rendering="geometricPrecision" shape-rendering="geometricPrecision" stroke="white" stroke-miterlimit="1.45">
          <rect x="0" width="162.7656" height="32.2656" y="0" stroke="none"/>
          <text fill="black" x="2" xml:space="preserve" y="13.6016" font-family="sans-serif" stroke="none">frbroo:R76_is_derivative_of</text>
          <text fill="black" x="4.7041" xml:space="preserve" y="27.7344" font-family="sans-serif" stroke="none">crm:P148_has_component</text>
        </g>
      </g>
    </g>
    <g id="y.edge.13">
      <g text-rendering="geometricPrecision" stroke-miterlimit="1.45" shape-rendering="geometricPrecision" transform="matrix(1,0,0,1,-35,159)" stroke-linecap="butt">
        <path fill="none" d="M1310.5602 180.8601 L1374.4116 180.8601 L1374.4116 385.4553 L1338.6239 385.4553"/>
      </g>
      <g text-rendering="geometricPrecision" stroke-miterlimit="1.45" shape-rendering="geometricPrecision" transform="matrix(1,0,0,1,-35,159)" stroke-linecap="butt">
        <path d="M1330.6239 385.4553 L1342.6239 390.4553 L1339.6239 385.4553 L1342.6239 380.4553 Z" stroke="none"/>
      </g>
      <g>
        <g stroke-linecap="butt" transform="matrix(1,0,0,1,-35,159)" fill="white" text-rendering="geometricPrecision" shape-rendering="geometricPrecision" stroke="white" stroke-miterlimit="1.45">
          <rect x="1326.3642" width="114.5254" height="18.1328" y="238.6262" stroke="none"/>
          <text fill="black" x="1328.3643" xml:space="preserve" y="252.2278" font-family="sans-serif" stroke="none">crm:P129_is_about</text>
        </g>
      </g>
    </g>
    <g id="y.edge.4">
      <g text-rendering="geometricPrecision" stroke-miterlimit="1.45" shape-rendering="geometricPrecision" transform="matrix(1,0,0,1,-35,159)" stroke-linecap="butt">
        <path fill="none" d="M720.871 137.6348 L720.871 80.7846"/>
        <path d="M720.871 72.7846 L715.871 84.7846 L720.871 81.7846 L725.871 84.7846 Z" stroke="none"/>
      </g>
      <g>
        <g stroke-linecap="butt" transform="matrix(1,0,0,1,-35,159)" fill="white" text-rendering="geometricPrecision" shape-rendering="geometricPrecision" stroke="white" stroke-miterlimit="1.45">
          <rect x="659.4842" width="137.002" height="18.1328" y="99" stroke="none"/>
          <text fill="black" x="661.4841" xml:space="preserve" y="112.6016" font-family="sans-serif" stroke="none">crm:P4_has_time-span</text>
        </g>
      </g>
    </g>
    <g id="y.edge.6">
      <g text-rendering="geometricPrecision" stroke-miterlimit="1.45" shape-rendering="geometricPrecision" transform="matrix(1,0,0,1,-35,159)" stroke-linecap="butt">
        <path fill="none" d="M720.871 188.2562 L720.871 373.1496"/>
        <path d="M720.871 381.1496 L725.871 369.1496 L720.871 372.1496 L715.871 369.1496 Z" stroke="none"/>
      </g>
      <g>
        <g stroke-linecap="butt" transform="matrix(1,0,0,1,-35,159)" fill="white" text-rendering="geometricPrecision" shape-rendering="geometricPrecision" stroke="white" stroke-miterlimit="1.45">
          <rect x="649.2235" width="143.2949" height="18.1328" y="302.1485" stroke="none"/>
          <text fill="black" x="651.2235" xml:space="preserve" y="315.7501" font-family="sans-serif" stroke="none">crm:P14_carried_out_by</text>
        </g>
      </g>
    </g>
    <g id="y.edge.7">
      <g text-rendering="geometricPrecision" stroke-miterlimit="1.45" shape-rendering="geometricPrecision" transform="matrix(1,0,0,1,-35,159)" stroke-linecap="butt">
        <path fill="none" d="M688.5073 188.253 L688.5073 270.5458 L371.5581 270.5458"/>
        <path d="M363.5581 270.5458 L375.5581 275.5458 L372.5581 270.5458 L375.5581 265.5458 Z" stroke="none"/>
      </g>
      <g>
        <g stroke-linecap="butt" transform="matrix(1,0,0,1,-35,159)" fill="white" text-rendering="geometricPrecision" shape-rendering="geometricPrecision" stroke="white" stroke-miterlimit="1.45">
          <rect x="530.4774" width="101.4648" height="18.1328" y="261.4794" stroke="none"/>
          <text fill="black" x="532.4774" xml:space="preserve" y="275.081" font-family="sans-serif" stroke="none">crm:P2_has_type</text>
        </g>
      </g>
    </g>
    <g id="y.edge.9">
      <g text-rendering="geometricPrecision" stroke-miterlimit="1.45" shape-rendering="geometricPrecision" transform="matrix(1,0,0,1,-35,159)" stroke-linecap="butt">
        <path fill="none" d="M858.8093 162.9584 L1057.6204 162.9584"/>
        <path d="M1065.6204 162.9584 L1053.6204 157.9584 L1056.6204 162.9584 L1053.6204 167.9584 Z" stroke="none"/>
      </g>
      <g>
        <g stroke-linecap="butt" transform="matrix(1,0,0,1,-35,159)" fill="white" text-rendering="geometricPrecision" shape-rendering="geometricPrecision" stroke="white" stroke-miterlimit="1.45">
          <rect x="923.3816" width="116.1836" height="18.1328" y="153.892" stroke="none"/>
          <text fill="black" x="925.3816" xml:space="preserve" y="167.4936" font-family="sans-serif" stroke="none">frbroo:R17_created</text>
        </g>
      </g>
    </g>
    <g id="y.edge.10">
      <g text-rendering="geometricPrecision" stroke-miterlimit="1.45" shape-rendering="geometricPrecision" transform="matrix(1,0,0,1,-35,159)" stroke-linecap="butt">
        <path fill="none" d="M823.1511 188.2508 L823.1511 303.5251 L1047.5085 303.5251"/>
        <path d="M1055.5085 303.5251 L1043.5085 298.5251 L1046.5085 303.5251 L1043.5085 308.5251 Z" stroke="none"/>
      </g>
      <g>
        <g stroke-linecap="butt" transform="matrix(1,0,0,1,-35,159)" fill="white" text-rendering="geometricPrecision" shape-rendering="geometricPrecision" stroke="white" stroke-miterlimit="1.45">
          <rect x="915.0196" width="116.1836" height="18.1328" y="294.4587" stroke="none"/>
          <text fill="black" x="917.0196" xml:space="preserve" y="308.0602" font-family="sans-serif" stroke="none">frbroo:R18_created</text>
        </g>
      </g>
    </g>
    <g id="y.edge.14">
      <g text-rendering="geometricPrecision" stroke-miterlimit="1.45" shape-rendering="geometricPrecision" transform="matrix(1,0,0,1,-35,159)" stroke-linecap="butt">
        <path fill="none" d="M1222.95 480.4449 L1222.95 420.3103"/>
        <path d="M1222.95 412.3103 L1217.95 424.3103 L1222.95 421.3103 L1227.95 424.3103 Z" stroke="none"/>
      </g>
      <g>
        <g stroke-linecap="butt" transform="matrix(1,0,0,1,-35,159)" fill="white" text-rendering="geometricPrecision" shape-rendering="geometricPrecision" stroke="white" stroke-miterlimit="1.45">
          <rect x="1149.5183" width="146.8633" height="18.1328" y="437.2937" stroke="none"/>
          <text fill="black" x="1151.5183" xml:space="preserve" y="450.8953" font-family="sans-serif" stroke="none">crm:P108_has_produced</text>
        </g>
      </g>
    </g>
    <g id="y.edge.11">
      <g text-rendering="geometricPrecision" stroke-miterlimit="1.45" shape-rendering="geometricPrecision" transform="matrix(1,0,0,1,-35,159)" stroke-linecap="butt">
        <path fill="none" d="M1065.6311 182.2941 L895.8596 182.2941 L895.8596 470.0392"/>
        <path d="M895.8596 478.0392 L900.8596 466.0392 L895.8596 469.0392 L890.8596 466.0392 Z" stroke="none"/>
      </g>
      <g>
        <g stroke-linecap="butt" transform="matrix(1,0,0,1,-35,159)" fill="white" text-rendering="geometricPrecision" shape-rendering="geometricPrecision" stroke="white" stroke-miterlimit="1.45">
          <rect x="847.3655" width="96.9883" height="18.1328" y="430.4812" stroke="none"/>
          <text fill="black" x="849.3655" xml:space="preserve" y="444.0827" font-family="sans-serif" stroke="none">dcterms:subject</text>
        </g>
      </g>
    </g>
    <g id="y.edge.15">
      <g text-rendering="geometricPrecision" stroke-miterlimit="1.45" shape-rendering="geometricPrecision" transform="matrix(1,0,0,1,-35,159)" stroke-linecap="butt">
        <path fill="none" d="M241.0775 480.9703 L241.0775 579.7717"/>
        <path d="M241.0775 587.7717 L246.0775 575.7717 L241.0775 578.7717 L236.0775 575.7717 Z" stroke="none"/>
      </g>
    </g>
    <g id="y.edge.16">
      <g text-rendering="geometricPrecision" stroke-miterlimit="1.45" shape-rendering="geometricPrecision" transform="matrix(1,0,0,1,-35,159)" stroke-linecap="butt">
        <path fill="none" d="M658.3219 431.7703 L658.3219 579.7619"/>
        <path d="M658.3219 587.7619 L663.3219 575.7619 L658.3219 578.7619 L653.3219 575.7619 Z" stroke="none"/>
      </g>
      <g>
        <g stroke-linecap="butt" transform="matrix(1,0,0,1,-35,159)" fill="white" text-rendering="geometricPrecision" shape-rendering="geometricPrecision" stroke="white" stroke-miterlimit="1.45">
          <rect x="624.329" width="72.9121" height="18.1328" y="545.8281" stroke="none"/>
          <text fill="black" x="626.329" xml:space="preserve" y="559.4296" font-family="sans-serif" stroke="none">owl:sameAs</text>
        </g>
      </g>
    </g>
    <g id="y.edge.17">
      <g text-rendering="geometricPrecision" stroke-miterlimit="1.45" shape-rendering="geometricPrecision" transform="matrix(1,0,0,1,-35,159)" stroke-linecap="butt">
        <path fill="none" d="M897.7878 522.0145 L897.7878 579.7795"/>
        <path d="M897.7878 587.7795 L902.7878 575.7795 L897.7878 578.7795 L892.7878 575.7795 Z" stroke="none"/>
      </g>
      <g>
        <g stroke-linecap="butt" transform="matrix(1,0,0,1,-35,159)" fill="white" text-rendering="geometricPrecision" shape-rendering="geometricPrecision" stroke="white" stroke-miterlimit="1.45">
          <rect x="861.3318" width="72.9121" height="18.1328" y="545.8281" stroke="none"/>
          <text fill="black" x="863.3318" xml:space="preserve" y="559.4296" font-family="sans-serif" stroke="none">owl:sameAs</text>
        </g>
      </g>
    </g>
    <g id="y.edge.18">
      <g text-rendering="geometricPrecision" stroke-miterlimit="1.45" shape-rendering="geometricPrecision" transform="matrix(1,0,0,1,-35,159)" stroke-linecap="butt">
        <path fill="none" d="M1093.7859 412.3202 L1093.7859 579.7444"/>
        <path d="M1093.7859 587.7444 L1098.7859 575.7444 L1093.7859 578.7444 L1088.7859 575.7444 Z" stroke="none"/>
      </g>
      <g>
        <g stroke-linecap="butt" transform="matrix(1,0,0,1,-35,159)" fill="white" text-rendering="geometricPrecision" shape-rendering="geometricPrecision" stroke="white" stroke-miterlimit="1.45">
          <rect x="1055.4659" width="72.9121" height="18.1328" y="549.9604" stroke="none"/>
          <text fill="black" x="1057.4658" xml:space="preserve" y="563.562" font-family="sans-serif" stroke="none">owl:sameAs</text>
        </g>
      </g>
    </g>
    <g id="y.node.14">
      <g fill="rgb(210,210,210)" text-rendering="geometricPrecision" shape-rendering="geometricPrecision" transform="matrix(1,0,0,1,-35,159) translate(4,4)" stroke="rgb(210,210,210)">
        <rect x="118.5934" width="436.8829" height="204.1711" y="726.2202" stroke="none"/>
      </g>
      <g fill="white" text-rendering="geometricPrecision" shape-rendering="geometricPrecision" transform="matrix(1,0,0,1,-35,159)" stroke="white">
        <rect x="118.5934" width="436.8829" height="204.1711" y="726.2202" stroke="none"/>
      </g>
      <g>
        <g fill="rgb(183,182,158)" text-rendering="geometricPrecision" shape-rendering="geometricPrecision" transform="matrix(1,0,0,1,-35,159)" stroke="rgb(183,182,158)">
          <rect x="118.5934" width="436.8829" height="21.666" y="726.2202" stroke="none"/>
        </g>
        <g font-size="15px" stroke-linecap="butt" transform="matrix(1,0,0,1,-35,159)" text-rendering="geometricPrecision" font-family="sans-serif" shape-rendering="geometricPrecision" font-weight="bold" stroke-miterlimit="1.45">
          <text x="476.6086" xml:space="preserve" y="742.7222" stroke="none">Prefixes   </text>
        </g>
      </g>
      <g/>
      <g>
        <g text-rendering="geometricPrecision" stroke-miterlimit="1.45" shape-rendering="geometricPrecision" font-family="sans-serif" transform="matrix(1,0,0,1,-35,159)" stroke-linecap="butt">
          <text x="135.1091" xml:space="preserve" y="771.3995" stroke="none">@prefix :        &lt;https://w3id.org/adalovelaceproject/&gt; .</text>
          <text x="135.1091" xml:space="preserve" y="785.5323" stroke="none">@prefix owl:     &lt;http://www.w3.org/2002/07/owl#&gt; .</text>
          <text x="135.1091" xml:space="preserve" y="799.6651" stroke="none">@prefix rdf:     &lt;http://www.w3.org/1999/02/22-rdf-syntax-ns#&gt; .</text>
          <text x="135.1091" xml:space="preserve" y="813.7979" stroke="none">@prefix rdfs:    &lt;http://www.w3.org/2000/01/rdf-schema#&gt; .</text>
          <text x="135.1091" xml:space="preserve" y="827.9307" stroke="none">@prefix xsd:     &lt;http://www.w3.org/2001/XMLSchema#&gt; .</text>
          <text x="135.1091" xml:space="preserve" y="842.0635" stroke="none">@prefix dc:      &lt;http://purl.org/dc/elements/1.1/&gt; .</text>
          <text x="135.1091" xml:space="preserve" y="856.1964" stroke="none">@prefix dcterms: &lt;http://purl.org/dc/terms/&gt; .</text>
          <text x="135.1091" xml:space="preserve" y="870.3292" stroke="none">@prefix foaf:    &lt;http://xmlns.com/foaf/0.1/&gt; .</text>
          <text x="135.1091" xml:space="preserve" y="884.462" stroke="none">@prefix skos:    &lt;http://www.w3.org/2004/02/skos/core#&gt; .</text>
          <text x="135.1091" xml:space="preserve" y="898.5948" stroke="none">@prefix crm:     &lt;http://www.cidoc-crm.org/cidoc-crm/&gt; .</text>
          <text x="135.1091" xml:space="preserve" y="912.7276" stroke="none">@prefix frbroo:  &lt;http://erlangen-crm.org/efrbroo/&gt; .</text>
        </g>
      </g>
      <g text-rendering="geometricPrecision" stroke-miterlimit="1.45" shape-rendering="geometricPrecision" transform="matrix(1,0,0,1,-35,159)" stroke-linecap="butt">
        <rect fill="none" x="118.5934" width="436.8829" height="204.1711" y="726.2202"/>
      </g>
    </g>
    <g id="y.node.15">
      <g>
        <g fill="white" text-rendering="geometricPrecision" shape-rendering="geometricPrecision" transform="matrix(1,0,0,1,-35,159)" stroke="white">
          <rect x="204.6214" width="72.9121" height="18.1328" y="545.8281" stroke="none"/>
        </g>
        <g text-rendering="geometricPrecision" stroke-miterlimit="1.45" shape-rendering="geometricPrecision" font-family="sans-serif" transform="matrix(1,0,0,1,-35,159)" stroke-linecap="butt">
          <text x="206.6214" xml:space="preserve" y="559.4296" stroke="none">owl:sameAs</text>
        </g>
      </g>
    </g>
    <g visibility="hidden" id="tooltip.y.edge.0" pointer-events="none">
      <g fill="rgb(255,255,204)" text-rendering="geometricPrecision" font-size="11px" shape-rendering="geometricPrecision" font-family="'Lucida Grande'" stroke="rgb(255,255,204)">
        <rect x="0" width="93" height="18" y="0" clip-path="url(#clipPath3)" stroke="none"/>
        <text fill="black" x="3" xml:space="preserve" y="13" clip-path="url(#clipPath3)" stroke="none">rdfs:subClassOf</text>
      </g>
    </g>
  </g>
</svg>
