<?xml version="1.0" encoding="UTF-8"?><svg xmlns="http://www.w3.org/2000/svg" xmlns:xlink="http://www.w3.org/1999/xlink" fill-opacity="1" color-rendering="auto" color-interpolation="auto" text-rendering="auto" stroke="black" stroke-linecap="square" width="593" stroke-miterlimit="10" shape-rendering="auto" stroke-opacity="1" fill="black" stroke-dasharray="none" font-weight="normal" stroke-width="1" height="490" font-family="'Dialog'" font-style="normal" stroke-linejoin="miter" font-size="12px" stroke-dashoffset="0" image-rendering="auto">
  <!--Generated by ySVG 2.6-->
  <defs id="genericDefs"/>
  <g>
    <defs id="defs1">
      <clipPath clipPathUnits="userSpaceOnUse" id="clipPath1">
        <path d="M0 0 L593 0 L593 490 L0 490 L0 0 Z"/>
      </clipPath>
      <clipPath clipPathUnits="userSpaceOnUse" id="clipPath2">
        <path d="M218 17 L1296.2919 17 L1296.2919 908 L218 908 L218 17 Z"/>
      </clipPath>
      <clipPath clipPathUnits="userSpaceOnUse" id="clipPath3">
        <path d="M214 13 L1292.2919 13 L1292.2919 904 L214 904 L214 13 Z"/>
      </clipPath>
    </defs>
    <g fill="white" text-rendering="geometricPrecision" shape-rendering="geometricPrecision" transform="scale(0.5499,0.5499) translate(-218,-17)" stroke="white">
      <rect x="218" width="1079" height="891" y="17" clip-path="url(#clipPath2)" stroke="none"/>
    </g>
    <g fill="yellow" text-rendering="geometricPrecision" shape-rendering="geometricPrecision" transform="matrix(0.5499,0,0,0.5499,-119.8878,-9.349)" stroke="yellow">
      <rect x="241.9224" y="181.3321" clip-path="url(#clipPath2)" width="244.9682" rx="4" ry="4" height="50.6346" stroke="none"/>
    </g>
    <g font-size="16px" stroke-linecap="butt" transform="matrix(0.5499,0,0,0.5499,-119.8878,-9.349)" text-rendering="geometricPrecision" font-family="sans-serif" shape-rendering="geometricPrecision" stroke-miterlimit="1.45">
      <text x="302.4729" xml:space="preserve" y="202.8008" clip-path="url(#clipPath2)" stroke="none">crm:E21_Person</text>
      <text x="273.1429" xml:space="preserve" font-size="12px" y="223.4355" clip-path="url(#clipPath2)" stroke="none">Ada · Babbage · Byron · Somerville</text>
    </g>
    <g fill="white" text-rendering="geometricPrecision" shape-rendering="geometricPrecision" transform="matrix(0.5499,0,0,0.5499,-119.8878,-9.349)" stroke="white">
      <rect x="245.9224" width="795.1377" height="33.4434" y="32.6436" clip-path="url(#clipPath2)" stroke="none"/>
      <rect x="245.9224" y="32.6436" clip-path="url(#clipPath2)" fill="none" width="795.1377" height="33.4434" stroke="black" stroke-miterlimit="1.6"/>
    </g>
    <g font-size="25px" stroke-linecap="butt" transform="matrix(0.5499,0,0,0.5499,-119.8878,-9.349)" text-rendering="geometricPrecision" font-family="sans-serif" shape-rendering="geometricPrecision" stroke-miterlimit="1.45">
      <text x="247.9224" xml:space="preserve" y="58.8136" clip-path="url(#clipPath2)" stroke="none">B. Instance-level worked example (ABox): the translation chainB. </text>
      <rect x="241.9224" y="181.3321" clip-path="url(#clipPath2)" fill="none" width="244.9682" rx="4" ry="4" height="50.6346"/>
    </g>
    <g fill="yellow" text-rendering="geometricPrecision" shape-rendering="geometricPrecision" transform="matrix(0.5499,0,0,0.5499,-119.8878,-9.349)" stroke="yellow">
      <rect x="608.8709" y="186.2822" clip-path="url(#clipPath2)" width="275.871" rx="4" ry="4" height="50.6346" stroke="none"/>
    </g>
    <g font-size="16px" stroke-linecap="butt" transform="matrix(0.5499,0,0,0.5499,-119.8878,-9.349)" text-rendering="geometricPrecision" font-family="sans-serif" shape-rendering="geometricPrecision" stroke-miterlimit="1.45">
      <text x="622.2947" xml:space="preserve" y="207.7509" clip-path="url(#clipPath2)" stroke="none">frbroo:F28_Expression_Creation</text>
      <text x="668.7068" xml:space="preserve" font-size="12px" y="221.1744" clip-path="url(#clipPath2)" stroke="none">Translation event 1842–43</text>
      <text x="674.4753" xml:space="preserve" font-size="12px" y="235.3072" clip-path="url(#clipPath2)" stroke="none">(the centre of the model)</text>
      <rect x="608.8709" y="186.2822" clip-path="url(#clipPath2)" fill="none" width="275.871" rx="4" ry="4" height="50.6346"/>
    </g>
    <g fill="yellow" text-rendering="geometricPrecision" shape-rendering="geometricPrecision" transform="matrix(0.5499,0,0,0.5499,-119.8878,-9.349)" stroke="yellow">
      <rect x="961.4317" y="184.7508" clip-path="url(#clipPath2)" width="244.9682" rx="4" ry="4" height="53.6975" stroke="none"/>
    </g>
    <g font-size="16px" stroke-linecap="butt" transform="matrix(0.5499,0,0,0.5499,-119.8878,-9.349)" text-rendering="geometricPrecision" font-family="sans-serif" shape-rendering="geometricPrecision" stroke-miterlimit="1.45">
      <text x="1001.3299" xml:space="preserve" y="206.2195" clip-path="url(#clipPath2)" stroke="none">frbroo:F2_Expression</text>
      <text x="1009.1092" xml:space="preserve" font-size="12px" y="221.7384" clip-path="url(#clipPath2)" stroke="none">text of the Notes · Note G</text>
      <text x="1014.1776" xml:space="preserve" font-size="12px" y="235.8712" clip-path="url(#clipPath2)" stroke="none">Menabrea's 1842 article</text>
      <rect x="961.4317" y="184.7508" clip-path="url(#clipPath2)" fill="none" width="244.9682" rx="4" ry="4" height="53.6975"/>
    </g>
    <g fill="rgb(255,153,204)" text-rendering="geometricPrecision" shape-rendering="geometricPrecision" transform="matrix(0.5499,0,0,0.5499,-119.8878,-9.349)" stroke="rgb(255,153,204)">
      <circle r="10" clip-path="url(#clipPath2)" cx="379.5353" cy="410.6485" stroke="none"/>
    </g>
    <g font-size="16px" stroke-linecap="butt" transform="matrix(0.5499,0,0,0.5499,-119.8878,-9.349)" text-rendering="geometricPrecision" font-family="sans-serif" shape-rendering="geometricPrecision" stroke-miterlimit="1.45">
      <text x="395.5353" xml:space="preserve" y="438.1172" clip-path="url(#clipPath2)" stroke="none">person:ada</text>
      <circle fill="none" stroke-width="3" r="10" clip-path="url(#clipPath2)" cx="379.5353" cy="410.6485"/>
    </g>
    <g fill="rgb(255,153,204)" text-rendering="geometricPrecision" shape-rendering="geometricPrecision" transform="matrix(0.5499,0,0,0.5499,-119.8878,-9.349)" stroke="rgb(255,153,204)">
      <circle r="10" clip-path="url(#clipPath2)" cx="1070.803" cy="537.1164" stroke="none"/>
    </g>
    <g font-size="16px" stroke-linecap="butt" transform="matrix(0.5499,0,0,0.5499,-119.8878,-9.349)" text-rendering="geometricPrecision" font-family="sans-serif" shape-rendering="geometricPrecision" stroke-miterlimit="1.45">
      <text x="1086.803" xml:space="preserve" y="543.1633" clip-path="url(#clipPath2)" stroke="none">manif:notes_1843_taylor</text>
      <circle fill="none" stroke-width="3" r="10" clip-path="url(#clipPath2)" cx="1070.803" cy="537.1164"/>
    </g>
    <g fill="rgb(255,153,204)" text-rendering="geometricPrecision" shape-rendering="geometricPrecision" transform="matrix(0.5499,0,0,0.5499,-119.8878,-9.349)" stroke="rgb(255,153,204)">
      <circle r="10" clip-path="url(#clipPath2)" cx="1125.0707" cy="408.5435" stroke="none"/>
    </g>
    <g font-size="16px" stroke-linecap="butt" transform="matrix(0.5499,0,0,0.5499,-119.8878,-9.349)" text-rendering="geometricPrecision" font-family="sans-serif" shape-rendering="geometricPrecision" stroke-miterlimit="1.45">
      <text x="1141.0707" xml:space="preserve" y="436.0122" clip-path="url(#clipPath2)" stroke="none">work:notes_1843</text>
      <circle fill="none" stroke-width="3" r="10" clip-path="url(#clipPath2)" cx="1125.0707" cy="408.5435"/>
    </g>
    <g fill="rgb(255,153,204)" text-rendering="geometricPrecision" shape-rendering="geometricPrecision" transform="matrix(0.5499,0,0,0.5499,-119.8878,-9.349)" stroke="rgb(255,153,204)">
      <circle r="10" clip-path="url(#clipPath2)" cx="746.8064" cy="409.3215" stroke="none"/>
    </g>
    <g font-size="16px" stroke-linecap="butt" transform="matrix(0.5499,0,0,0.5499,-119.8878,-9.349)" text-rendering="geometricPrecision" font-family="sans-serif" shape-rendering="geometricPrecision" stroke-miterlimit="1.45">
      <text x="762.8064" xml:space="preserve" y="436.7902" clip-path="url(#clipPath2)" stroke="none">event:translation_1842_43</text>
      <circle fill="none" stroke-width="3" r="10" clip-path="url(#clipPath2)" cx="746.8064" cy="409.3215"/>
    </g>
    <g fill="rgb(255,153,204)" text-rendering="geometricPrecision" shape-rendering="geometricPrecision" transform="matrix(0.5499,0,0,0.5499,-119.8878,-9.349)" stroke="rgb(255,153,204)">
      <circle r="10" clip-path="url(#clipPath2)" cx="611.4065" cy="636.7386" stroke="none"/>
    </g>
    <g font-size="16px" stroke-linecap="butt" transform="matrix(0.5499,0,0,0.5499,-119.8878,-9.349)" text-rendering="geometricPrecision" font-family="sans-serif" shape-rendering="geometricPrecision" stroke-miterlimit="1.45">
      <text x="627.4066" xml:space="preserve" y="664.2074" clip-path="url(#clipPath2)" stroke="none">work:menabrea_1842</text>
      <circle fill="none" stroke-width="3" r="10" clip-path="url(#clipPath2)" cx="611.4065" cy="636.7386"/>
    </g>
    <g fill="yellow" text-rendering="geometricPrecision" shape-rendering="geometricPrecision" transform="matrix(0.5499,0,0,0.5499,-119.8878,-9.349)" stroke="yellow">
      <rect x="938.9317" y="620.3608" clip-path="url(#clipPath2)" width="289.9682" rx="4" ry="4" height="50.6346" stroke="none"/>
    </g>
    <g font-size="16px" stroke-linecap="butt" transform="matrix(0.5499,0,0,0.5499,-119.8878,-9.349)" text-rendering="geometricPrecision" font-family="sans-serif" shape-rendering="geometricPrecision" stroke-miterlimit="1.45">
      <text x="944.9317" xml:space="preserve" y="641.8296" clip-path="url(#clipPath2)" stroke="none">frbroo:F4_Manifestation_Singleton</text>
      <text x="985.7628" xml:space="preserve" font-size="12px" y="657.8584" clip-path="url(#clipPath2)" stroke="none">Taylor's Sci. Memoirs vol. 3, 1843</text>
      <rect x="938.9317" y="620.3608" clip-path="url(#clipPath2)" fill="none" width="289.9682" rx="4" ry="4" height="50.6346"/>
    </g>
    <g fill="rgb(255,153,204)" text-rendering="geometricPrecision" shape-rendering="geometricPrecision" transform="matrix(0.5499,0,0,0.5499,-119.8878,-9.349)" stroke="rgb(255,153,204)">
      <circle r="10" clip-path="url(#clipPath2)" cx="379.5353" cy="556.2329" stroke="none"/>
    </g>
    <g font-size="16px" stroke-linecap="butt" transform="matrix(0.5499,0,0,0.5499,-119.8878,-9.349)" text-rendering="geometricPrecision" font-family="sans-serif" shape-rendering="geometricPrecision" stroke-miterlimit="1.45">
      <text x="395.5353" xml:space="preserve" y="583.7017" clip-path="url(#clipPath2)" stroke="none">wikidata:Q7259</text>
      <circle fill="none" stroke-width="3" r="10" clip-path="url(#clipPath2)" cx="379.5353" cy="556.2329"/>
      <path fill="none" d="M379.5353 400.6485 L379.5353 239.9886" clip-path="url(#clipPath2)"/>
      <path d="M379.5353 231.9886 L374.5353 243.9886 L379.5353 240.9886 L384.5353 243.9886 Z" stroke="none" clip-path="url(#clipPath2)"/>
    </g>
    <g stroke-linecap="butt" transform="matrix(0.5499,0,0,0.5499,-119.8878,-9.349)" fill="white" text-rendering="geometricPrecision" shape-rendering="geometricPrecision" stroke="white" stroke-miterlimit="1.45">
      <rect x="354.7014" width="49.668" height="18.1328" y="304.8256" clip-path="url(#clipPath2)" stroke="none"/>
      <text x="356.7014" y="318.4272" clip-path="url(#clipPath2)" fill="black" font-family="sans-serif" stroke="none" xml:space="preserve">rdf:type</text>
      <path fill="none" d="M1125.0707 398.5435 L1125.0707 246.4433" clip-path="url(#clipPath2)" stroke="black"/>
      <path fill="black" d="M1125.0707 238.4433 L1120.0707 250.4433 L1125.0707 247.4433 L1130.0707 250.4433 Z" clip-path="url(#clipPath2)" stroke="none"/>
      <rect x="1100.2367" width="49.668" height="18.1328" y="309.4295" clip-path="url(#clipPath2)" stroke="none"/>
      <text x="1102.2367" y="323.031" clip-path="url(#clipPath2)" fill="black" font-family="sans-serif" stroke="none" xml:space="preserve">rdf:type</text>
      <path fill="none" d="M746.8064 399.3214 L746.8064 244.9438" clip-path="url(#clipPath2)" stroke="black"/>
      <path fill="black" d="M746.8064 236.9438 L741.8064 248.9438 L746.8064 245.9438 L751.8064 248.9438 Z" clip-path="url(#clipPath2)" stroke="none"/>
      <rect x="721.9724" width="49.668" height="18.1328" y="304.8256" clip-path="url(#clipPath2)" stroke="none"/>
      <text x="723.9724" y="318.4272" clip-path="url(#clipPath2)" fill="black" font-family="sans-serif" stroke="none" xml:space="preserve">rdf:type</text>
      <path fill="none" d="M746.8064 419.3214 L746.8064 527.1165 L747.4314 531.4915 L749.3064 534.6165 L752.4314 536.4915 L756.8064 537.1165 L1052.803 537.1165" clip-path="url(#clipPath2)" stroke="black"/>
      <path fill="black" d="M1060.803 537.1165 L1048.803 532.1165 L1051.803 537.1165 L1048.803 542.1165 Z" clip-path="url(#clipPath2)" stroke="none"/>
      <rect x="814.167" width="116.1836" height="18.1328" y="528.05" clip-path="url(#clipPath2)" stroke="none"/>
      <text x="816.167" y="541.6516" clip-path="url(#clipPath2)" fill="black" font-family="sans-serif" stroke="none" xml:space="preserve">frbroo:R18_created</text>
      <path fill="none" d="M756.8064 409.3214 L935.9385 409.3214 L935.9385 408.5435 L1107.0707 408.5435" clip-path="url(#clipPath2)" stroke="black"/>
      <path fill="black" d="M1115.0707 408.5435 L1103.0707 403.5435 L1106.0707 408.5435 L1103.0707 413.5435 Z" clip-path="url(#clipPath2)" stroke="none"/>
      <rect x="877.8467" width="116.1836" height="18.1328" y="399.4771" clip-path="url(#clipPath2)" stroke="none"/>
      <text x="879.8467" y="413.0786" clip-path="url(#clipPath2)" fill="black" font-family="sans-serif" stroke="none" xml:space="preserve">frbroo:R17_created</text>
      <path fill="none" d="M736.8064 409.3214 L397.4353 409.3214" clip-path="url(#clipPath2)" stroke="black"/>
      <path fill="black" d="M389.4353 409.3214 L401.4353 414.3214 L398.4353 409.3214 L401.4353 404.3214 Z" clip-path="url(#clipPath2)" stroke="none"/>
      <rect x="491.5234" width="143.2949" height="18.1328" y="400.255" clip-path="url(#clipPath2)" stroke="none"/>
      <text x="493.5234" y="413.8566" clip-path="url(#clipPath2)" fill="black" font-family="sans-serif" stroke="none" xml:space="preserve">crm:P14_carried_out_by</text>
      <path fill="none" d="M1125.0707 418.5435 L1125.0707 481.1411 L1124.4457 485.5161 L1122.5707 488.6411 L1119.4457 490.5161 L1115.0707 491.1411 L695.8018 491.1411 L691.4268 491.7661 L688.3018 493.6411 L686.4268 496.7661 L685.8018 501.1411 L685.8018 626.7386 L685.1768 631.1136 L683.3018 634.2386 L680.1768 636.1136 L675.8018 636.7386 L629.3933 636.7386" clip-path="url(#clipPath2)" stroke="black"/>
      <path fill="black" d="M621.3933 636.7386 L633.3933 641.7386 L630.3933 636.7386 L633.3933 631.7386 Z" clip-path="url(#clipPath2)" stroke="none"/>
      <rect x="639.9023" width="162.7656" height="18.1328" y="562.7342" clip-path="url(#clipPath2)" stroke="none"/>
      <text x="641.9023" y="576.3358" clip-path="url(#clipPath2)" fill="black" font-family="sans-serif" stroke="none" xml:space="preserve">frbroo:R76_is_derivative_of</text>
      <path fill="none" d="M611.4066 626.7386 L611.4066 475.1165 L612.0316 470.7415 L613.9066 467.6165 L617.0316 465.7415 L621.4066 465.1165 L1002.0048 465.1165 L1006.3798 464.4915 L1009.5048 462.6165 L1011.3798 459.4915 L1012.0048 455.1165 L1012.0048 246.4596" clip-path="url(#clipPath2)" stroke="black"/>
      <path fill="black" d="M1012.0048 238.4596 L1007.0048 250.4596 L1012.0048 247.4596 L1017.0048 250.4596 Z" clip-path="url(#clipPath2)" stroke="none"/>
      <rect x="987.1708" width="49.668" height="18.1328" y="309.223" clip-path="url(#clipPath2)" stroke="none"/>
      <text x="989.1708" y="322.8246" clip-path="url(#clipPath2)" fill="black" font-family="sans-serif" stroke="none" xml:space="preserve">rdf:type</text>
      <path fill="none" d="M1070.803 547.1165 L1070.803 612.3239" clip-path="url(#clipPath2)" stroke="black"/>
      <path fill="black" d="M1070.803 620.3239 L1075.803 608.3239 L1070.803 611.3239 L1065.803 608.3239 Z" clip-path="url(#clipPath2)" stroke="none"/>
      <rect x="1045.969" width="49.668" height="18.1328" y="572.228" clip-path="url(#clipPath2)" stroke="none"/>
      <text x="1047.969" y="585.8296" clip-path="url(#clipPath2)" fill="black" font-family="sans-serif" stroke="none" xml:space="preserve">rdf:type</text>
      <path fill="none" d="M379.5353 420.6485 L379.5353 538.2329" clip-path="url(#clipPath2)" stroke="black"/>
      <path fill="black" d="M379.5353 546.2329 L384.5353 534.2329 L379.5353 537.2329 L374.5353 534.2329 Z" clip-path="url(#clipPath2)" stroke="none"/>
      <rect x="343.0793" width="72.9121" height="18.1328" y="474.3743" clip-path="url(#clipPath2)" stroke="none"/>
      <text x="345.0793" y="487.9758" clip-path="url(#clipPath2)" fill="black" font-family="sans-serif" stroke="none" xml:space="preserve">owl:sameAs</text>
    </g>
    <g fill="rgb(210,210,210)" text-rendering="geometricPrecision" shape-rendering="geometricPrecision" transform="matrix(0.5499,0,0,0.5499,-119.8878,-9.349) translate(4,4)" stroke="rgb(210,210,210)">
      <rect x="233.4111" width="424.8694" height="204.1711" y="684.6804" clip-path="url(#clipPath3)" stroke="none"/>
    </g>
    <g fill="white" text-rendering="geometricPrecision" shape-rendering="geometricPrecision" transform="matrix(0.5499,0,0,0.5499,-119.8878,-9.349)" stroke="white">
      <rect x="233.4111" width="424.8694" height="204.1711" y="684.6804" clip-path="url(#clipPath2)" stroke="none"/>
      <rect x="233.4111" y="684.6804" clip-path="url(#clipPath2)" fill="rgb(183,182,158)" width="424.8694" height="21.666" stroke="none"/>
    </g>
    <g font-size="15px" stroke-linecap="butt" transform="matrix(0.5499,0,0,0.5499,-119.8878,-9.349)" text-rendering="geometricPrecision" font-family="sans-serif" shape-rendering="geometricPrecision" font-weight="bold" stroke-miterlimit="1.45">
      <text x="579.4128" xml:space="preserve" y="701.1824" clip-path="url(#clipPath2)" stroke="none">Prefixes   </text>
      <text x="243.92" font-size="12px" y="729.8596" clip-path="url(#clipPath2)" stroke="none" font-weight="normal" xml:space="preserve">@prefix :        &lt;https://w3id.org/adalovelaceproject/&gt; .</text>
      <text x="243.92" font-size="12px" y="743.9924" clip-path="url(#clipPath2)" stroke="none" font-weight="normal" xml:space="preserve">@prefix owl:     &lt;http://www.w3.org/2002/07/owl#&gt; .</text>
      <text x="243.92" font-size="12px" y="758.1252" clip-path="url(#clipPath2)" stroke="none" font-weight="normal" xml:space="preserve">@prefix rdf:     &lt;http://www.w3.org/1999/02/22-rdf-syntax-ns#&gt; .</text>
      <text x="243.92" font-size="12px" y="772.2581" clip-path="url(#clipPath2)" stroke="none" font-weight="normal" xml:space="preserve">@prefix rdfs:    &lt;http://www.w3.org/2000/01/rdf-schema#&gt; .</text>
      <text x="243.92" font-size="12px" y="786.3909" clip-path="url(#clipPath2)" stroke="none" font-weight="normal" xml:space="preserve">@prefix xsd:     &lt;http://www.w3.org/2001/XMLSchema#&gt; .</text>
      <text x="243.92" font-size="12px" y="800.5237" clip-path="url(#clipPath2)" stroke="none" font-weight="normal" xml:space="preserve">@prefix dc:      &lt;http://purl.org/dc/elements/1.1/&gt; .</text>
      <text x="243.92" font-size="12px" y="814.6565" clip-path="url(#clipPath2)" stroke="none" font-weight="normal" xml:space="preserve">@prefix dcterms: &lt;http://purl.org/dc/terms/&gt; .</text>
      <text x="243.92" font-size="12px" y="828.7893" clip-path="url(#clipPath2)" stroke="none" font-weight="normal" xml:space="preserve">@prefix foaf:    &lt;http://xmlns.com/foaf/0.1/&gt; .</text>
      <text x="243.92" font-size="12px" y="842.9221" clip-path="url(#clipPath2)" stroke="none" font-weight="normal" xml:space="preserve">@prefix skos:    &lt;http://www.w3.org/2004/02/skos/core#&gt; .</text>
      <text x="243.92" font-size="12px" y="857.0549" clip-path="url(#clipPath2)" stroke="none" font-weight="normal" xml:space="preserve">@prefix crm:     &lt;http://www.cidoc-crm.org/cidoc-crm/&gt; .</text>
      <text x="243.92" font-size="12px" y="871.1877" clip-path="url(#clipPath2)" stroke="none" font-weight="normal" xml:space="preserve">@prefix frbroo:  &lt;http://erlangen-crm.org/efrbroo/&gt; .</text>
      <rect fill="none" x="233.4111" width="424.8694" height="204.1711" y="684.6804" clip-path="url(#clipPath2)"/>
    </g>
    <g fill="yellow" text-rendering="geometricPrecision" shape-rendering="geometricPrecision" transform="matrix(0.5499,0,0,0.5499,-119.8878,-9.349)" stroke="yellow">
      <rect x="935.0276" y="88.4206" clip-path="url(#clipPath2)" width="81.9682" rx="4" ry="4" height="44" stroke="none"/>
    </g>
    <g font-size="16px" stroke-linecap="butt" transform="matrix(0.5499,0,0,0.5499,-119.8878,-9.349)" text-rendering="geometricPrecision" font-family="sans-serif" shape-rendering="geometricPrecision" stroke-miterlimit="1.45">
      <text x="955.5898" xml:space="preserve" y="116.4674" clip-path="url(#clipPath2)" stroke="none">Class</text>
      <rect x="935.0276" y="88.4206" clip-path="url(#clipPath2)" fill="none" width="81.9682" rx="4" ry="4" height="44"/>
    </g>
    <g fill="rgb(255,153,204)" text-rendering="geometricPrecision" shape-rendering="geometricPrecision" transform="matrix(0.5499,0,0,0.5499,-119.8878,-9.349)" stroke="rgb(255,153,204)">
      <circle r="10" clip-path="url(#clipPath2)" cx="1098.3648" cy="110.4206" stroke="none"/>
    </g>
    <g font-size="16px" stroke-linecap="butt" transform="matrix(0.5499,0,0,0.5499,-119.8878,-9.349)" text-rendering="geometricPrecision" font-family="sans-serif" shape-rendering="geometricPrecision" stroke-miterlimit="1.45">
      <text x="1114.3647" xml:space="preserve" y="116.4674" clip-path="url(#clipPath2)" stroke="none">entity</text>
      <circle fill="none" stroke-width="3" r="10" clip-path="url(#clipPath2)" cx="1098.3648" cy="110.4206"/>
    </g>
  </g>
</svg>
