<?xml version="1.0" encoding="UTF-8"?><svg xmlns="http://www.w3.org/2000/svg" xmlns:xlink="http://www.w3.org/1999/xlink" fill-opacity="1" color-rendering="auto" color-interpolation="auto" text-rendering="auto" stroke="black" stroke-linecap="square" width="890" stroke-miterlimit="10" shape-rendering="auto" stroke-opacity="1" fill="black" stroke-dasharray="none" font-weight="normal" stroke-width="1" height="500" font-family="'Dialog'" font-style="normal" stroke-linejoin="miter" font-size="12px" stroke-dashoffset="0" image-rendering="auto">
  <!--Generated by ySVG 2.6-->
  <defs id="genericDefs"/>
  <g>
    <defs id="defs1">
      <clipPath clipPathUnits="userSpaceOnUse" id="clipPath1">
        <path d="M0 0 L890 0 L890 500 L0 500 L0 0 Z"/>
      </clipPath>
      <clipPath clipPathUnits="userSpaceOnUse" id="clipPath2">
        <path d="M150 89 L1545.52 89 L1545.52 873 L150 873 L150 89 Z"/>
      </clipPath>
      <clipPath clipPathUnits="userSpaceOnUse" id="clipPath3">
        <path d="M0 0 L0 18 L93 18 L93 0 Z"/>
      </clipPath>
      <script type="text/ecmascript"><![CDATA[      var SVGDocument = null;
      var SVGRoot = null;
      var TrueCoords = null;
      var lastElement = null;
      var initialized = null;
      var tipGroup;
      function Init(evt)
      {
         SVGDocument = evt.target.ownerDocument;
         SVGRoot = SVGDocument.documentElement;
         TrueCoords = SVGRoot.createSVGPoint();
         initialized = evt;
      };
      function GetTrueCoords(evt)
      {
         var newScale = SVGRoot.currentScale;
         var translation = SVGRoot.currentTranslate;
         TrueCoords.x = (evt.clientX - translation.x)/newScale;
         TrueCoords.y = (evt.clientY - translation.y)/newScale;
      };
      function HideTooltip( evt )
      {
         if(initialized == null) {
           Init(evt);
         }
         if(tipGroup != null) {
           tipGroup.setAttributeNS(null, 'visibility', 'hidden');
         }
      };
      function ShowTooltip( evt )
      {
         if(initialized == null) {
           Init(evt);
         }
         GetTrueCoords( evt );
         var tipScale = 1/SVGRoot.currentScale;
         var targetElement = evt.currentTarget;
         if ( lastElement != targetElement )
         {
            var targetId = targetElement.getAttributeNS(null, 'id');
            var tipId = 'tooltip.' + targetId;
            tipGroup = SVGDocument.getElementById(tipId);
            var xPos = TrueCoords.x + (10 * tipScale);
            var yPos = TrueCoords.y + (10 * tipScale);
            tipGroup.setAttributeNS(null, 'transform', 'translate(' + xPos + ',' + yPos + ') scale(' + tipScale + ')');
            tipGroup.setAttributeNS(null, 'visibility', 'visible');
         }
      };
]]></script>
    </defs>
    <g fill="white" text-rendering="geometricPrecision" shape-rendering="geometricPrecision" transform="scale(0.6378,0.6378) translate(-150,-89)" stroke="white">
      <rect x="150" width="1396" height="784" y="89" clip-path="url(#clipPath2)" stroke="none"/>
    </g>
    <g id="y.node.0">
      <g fill="yellow" text-rendering="geometricPrecision" shape-rendering="geometricPrecision" transform="matrix(0.6378,0,0,0.6378,-95.6633,-56.7602)" stroke="yellow">
        <rect x="207.1868" y="213.2812" width="244.9682" rx="4" ry="4" height="50.6346" stroke="none"/>
      </g>
      <g>
        <g font-size="16px" stroke-linecap="butt" transform="matrix(0.6378,0,0,0.6378,-95.6633,-56.7602)" text-rendering="geometricPrecision" font-family="sans-serif" shape-rendering="geometricPrecision" stroke-miterlimit="1.45">
          <text x="284.5068" xml:space="preserve" y="244.6454" stroke="none">Birth/Death</text>
        </g>
      </g>
      <g/>
      <g text-rendering="geometricPrecision" stroke-miterlimit="1.45" shape-rendering="geometricPrecision" transform="matrix(0.6378,0,0,0.6378,-95.6633,-56.7602)" stroke-linecap="butt">
        <rect x="207.1868" y="213.2812" fill="none" width="244.9682" rx="4" ry="4" height="50.6346"/>
      </g>
    </g>
    <g id="y.node.1">
      <g fill="yellow" text-rendering="geometricPrecision" shape-rendering="geometricPrecision" transform="matrix(0.6378,0,0,0.6378,-95.6633,-56.7602)" stroke="yellow">
        <rect x="685.3951" y="214.0364" width="244.9682" rx="4" ry="4" height="49.8795" stroke="none"/>
      </g>
      <g>
        <g font-size="16px" stroke-linecap="butt" transform="matrix(0.6378,0,0,0.6378,-95.6633,-56.7602)" text-rendering="geometricPrecision" font-family="sans-serif" shape-rendering="geometricPrecision" stroke-miterlimit="1.45">
          <text x="765.2269" xml:space="preserve" y="235.5051" stroke="none">Time-Span</text>
        </g>
      </g>
      <g>
        <g text-rendering="geometricPrecision" stroke-miterlimit="1.45" shape-rendering="geometricPrecision" font-family="sans-serif" transform="matrix(0.6378,0,0,0.6378,-95.6633,-56.7602)" stroke-linecap="butt">
          <text x="746.603" xml:space="preserve" y="255.3846" stroke="none">1815 · 1842–43 · 1852</text>
        </g>
      </g>
      <g text-rendering="geometricPrecision" stroke-miterlimit="1.45" shape-rendering="geometricPrecision" transform="matrix(0.6378,0,0,0.6378,-95.6633,-56.7602)" stroke-linecap="butt">
        <rect x="685.3951" y="214.0364" fill="none" width="244.9682" rx="4" ry="4" height="49.8795"/>
      </g>
    </g>
    <g id="y.node.2">
      <g fill="yellow" text-rendering="geometricPrecision" shape-rendering="geometricPrecision" transform="matrix(0.6378,0,0,0.6378,-95.6633,-56.7602)" stroke="yellow">
        <rect x="1154.2084" y="214.0364" width="244.9682" rx="4" ry="4" height="49.8795" stroke="none"/>
      </g>
      <g>
        <g font-size="16px" stroke-linecap="butt" transform="matrix(0.6378,0,0,0.6378,-95.6633,-56.7602)" text-rendering="geometricPrecision" font-family="sans-serif" shape-rendering="geometricPrecision" stroke-miterlimit="1.45">
          <text x="1256.9855" xml:space="preserve" y="235.5051" stroke="none">Work</text>
        </g>
      </g>
      <g>
        <g text-rendering="geometricPrecision" stroke-miterlimit="1.45" shape-rendering="geometricPrecision" font-family="sans-serif" transform="matrix(0.6378,0,0,0.6378,-95.6633,-56.7602)" stroke-linecap="butt">
          <text x="1200.0096" xml:space="preserve" y="255.3846" stroke="none">the Notes as intellectual idea</text>
        </g>
      </g>
      <g text-rendering="geometricPrecision" stroke-miterlimit="1.45" shape-rendering="geometricPrecision" transform="matrix(0.6378,0,0,0.6378,-95.6633,-56.7602)" stroke-linecap="butt">
        <rect x="1154.2084" y="214.0364" fill="none" width="244.9682" rx="4" ry="4" height="49.8795"/>
      </g>
    </g>
    <g id="y.node.3">
      <g fill="yellow" text-rendering="geometricPrecision" shape-rendering="geometricPrecision" transform="matrix(0.6378,0,0,0.6378,-95.6633,-56.7602)" stroke="yellow">
        <rect x="207.1868" y="456.3281" width="244.9682" rx="4" ry="4" height="50.6346" stroke="none"/>
      </g>
      <g>
        <g font-size="16px" stroke-linecap="butt" transform="matrix(0.6378,0,0,0.6378,-95.6633,-56.7602)" text-rendering="geometricPrecision" font-family="sans-serif" shape-rendering="geometricPrecision" stroke-miterlimit="1.45">
          <text x="235.335" xml:space="preserve" y="477.7969" stroke="none">Type of Event or Activity</text>
        </g>
      </g>
      <g>
        <g text-rendering="geometricPrecision" stroke-miterlimit="1.45" shape-rendering="geometricPrecision" font-family="sans-serif" transform="matrix(0.6378,0,0,0.6378,-95.6633,-56.7602)" stroke-linecap="butt">
          <text x="252.5266" xml:space="preserve" y="498.4315" stroke="none">Tutoring · Burial · Translation</text>
        </g>
      </g>
      <g text-rendering="geometricPrecision" stroke-miterlimit="1.45" shape-rendering="geometricPrecision" transform="matrix(0.6378,0,0,0.6378,-95.6633,-56.7602)" stroke-linecap="butt">
        <rect x="207.1868" y="456.3281" fill="none" width="244.9682" rx="4" ry="4" height="50.6346"/>
      </g>
    </g>
    <g id="y.node.4">
      <g fill="yellow" text-rendering="geometricPrecision" shape-rendering="geometricPrecision" transform="matrix(0.6378,0,0,0.6378,-95.6633,-56.7602)" stroke="yellow">
        <rect x="202.1868" y="325.375" width="260.2872" rx="4" ry="4" height="57.4481" stroke="none"/>
      </g>
      <g>
        <g font-size="16px" stroke-linecap="butt" transform="matrix(0.6378,0,0,0.6378,-95.6633,-56.7602)" text-rendering="geometricPrecision" font-family="sans-serif" shape-rendering="geometricPrecision" stroke-miterlimit="1.45">
          <text x="260.7288" xml:space="preserve" y="346.8438" stroke="none">Is Event or Activity</text>
        </g>
      </g>
      <g>
        <g text-rendering="geometricPrecision" stroke-miterlimit="1.45" shape-rendering="geometricPrecision" font-family="sans-serif" transform="matrix(0.6378,0,0,0.6378,-95.6633,-56.7602)" stroke-linecap="butt">
          <text x="244.847" xml:space="preserve" y="366.7773" stroke="none">burial · introduction · tutoring</text>
        </g>
        <g text-rendering="geometricPrecision" stroke-miterlimit="1.45" shape-rendering="geometricPrecision" font-family="sans-serif" transform="matrix(0.6378,0,0,0.6378,-95.6633,-56.7602)" stroke-linecap="butt">
          <text x="294.1712" xml:space="preserve" y="380.9101" stroke="none">collaboration</text>
        </g>
      </g>
      <g text-rendering="geometricPrecision" stroke-miterlimit="1.45" shape-rendering="geometricPrecision" transform="matrix(0.6378,0,0,0.6378,-95.6633,-56.7602)" stroke-linecap="butt">
        <rect x="202.1868" y="325.375" fill="none" width="260.2872" rx="4" ry="4" height="57.4481"/>
      </g>
    </g>
    <g id="y.node.5">
      <g fill="yellow" text-rendering="geometricPrecision" shape-rendering="geometricPrecision" transform="matrix(0.6378,0,0,0.6378,-95.6633,-56.7602)" stroke="yellow">
        <rect x="693.0546" y="572.3067" width="244.9682" rx="4" ry="4" height="50.6346" stroke="none"/>
      </g>
      <g>
        <g font-size="16px" stroke-linecap="butt" transform="matrix(0.6378,0,0,0.6378,-95.6633,-56.7602)" text-rendering="geometricPrecision" font-family="sans-serif" shape-rendering="geometricPrecision" stroke-miterlimit="1.45">
          <text x="789.4293" xml:space="preserve" y="593.7755" stroke="none">Person</text>
        </g>
      </g>
      <g>
        <g text-rendering="geometricPrecision" stroke-miterlimit="1.45" shape-rendering="geometricPrecision" font-family="sans-serif" transform="matrix(0.6378,0,0,0.6378,-95.6633,-56.7602)" stroke-linecap="butt">
          <text x="724.2751" xml:space="preserve" y="614.41" stroke="none">Ada · Babbage · Byron · Somerville</text>
        </g>
      </g>
      <g text-rendering="geometricPrecision" stroke-miterlimit="1.45" shape-rendering="geometricPrecision" transform="matrix(0.6378,0,0,0.6378,-95.6633,-56.7602)" stroke-linecap="butt">
        <rect x="693.0546" y="572.3067" fill="none" width="244.9682" rx="4" ry="4" height="50.6346"/>
      </g>
    </g>
    <g id="y.node.6">
      <g fill="yellow" text-rendering="geometricPrecision" shape-rendering="geometricPrecision" transform="matrix(0.6378,0,0,0.6378,-95.6633,-56.7602)" stroke="yellow">
        <rect x="207.1868" y="621.4805" width="244.9682" rx="4" ry="4" height="50.6346" stroke="none"/>
      </g>
      <g>
        <g font-size="16px" stroke-linecap="butt" transform="matrix(0.6378,0,0,0.6378,-95.6633,-56.7602)" text-rendering="geometricPrecision" font-family="sans-serif" shape-rendering="geometricPrecision" stroke-miterlimit="1.45">
          <text x="309.9639" xml:space="preserve" y="642.9493" stroke="none">Place</text>
        </g>
      </g>
      <g>
        <g text-rendering="geometricPrecision" stroke-miterlimit="1.45" shape-rendering="geometricPrecision" font-family="sans-serif" transform="matrix(0.6378,0,0,0.6378,-95.6633,-56.7602)" stroke-linecap="butt">
          <text x="262.7978" xml:space="preserve" y="663.5839" stroke="none">London · Hucknall church</text>
        </g>
      </g>
      <g text-rendering="geometricPrecision" stroke-miterlimit="1.45" shape-rendering="geometricPrecision" transform="matrix(0.6378,0,0,0.6378,-95.6633,-56.7602)" stroke-linecap="butt">
        <rect x="207.1868" y="621.4805" fill="none" width="244.9682" rx="4" ry="4" height="50.6346"/>
      </g>
    </g>
    <g id="y.node.7">
      <g fill="yellow" text-rendering="geometricPrecision" shape-rendering="geometricPrecision" transform="matrix(0.6378,0,0,0.6378,-95.6633,-56.7602)" stroke="yellow">
        <rect x="1158.8998" y="549.7472" width="260.2872" rx="4" ry="4" height="53.6975" stroke="none"/>
      </g>
      <g>
        <g font-size="16px" stroke-linecap="butt" transform="matrix(0.6378,0,0,0.6378,-95.6633,-56.7602)" text-rendering="geometricPrecision" font-family="sans-serif" shape-rendering="geometricPrecision" stroke-miterlimit="1.45">
          <text x="1263.8129" xml:space="preserve" y="571.2159" stroke="none">Object</text>
        </g>
      </g>
      <g>
        <g text-rendering="geometricPrecision" stroke-miterlimit="1.45" shape-rendering="geometricPrecision" font-family="sans-serif" transform="matrix(0.6378,0,0,0.6378,-95.6633,-56.7602)" stroke-linecap="butt">
          <text x="1239.4818" xml:space="preserve" y="594.9134" stroke="none">Analytical Engine</text>
        </g>
      </g>
      <g text-rendering="geometricPrecision" stroke-miterlimit="1.45" shape-rendering="geometricPrecision" transform="matrix(0.6378,0,0,0.6378,-95.6633,-56.7602)" stroke-linecap="butt">
        <rect x="1158.8998" y="549.7472" fill="none" width="260.2872" rx="4" ry="4" height="53.6975"/>
      </g>
    </g>
    <g id="y.node.8">
      <g fill="yellow" text-rendering="geometricPrecision" shape-rendering="geometricPrecision" transform="matrix(0.6378,0,0,0.6378,-95.6633,-56.7602)" stroke="yellow">
        <rect x="1144.0593" y="469.3484" width="289.9682" rx="4" ry="4" height="50.6346" stroke="none"/>
      </g>
      <g>
        <g text-rendering="geometricPrecision" stroke-miterlimit="1.45" shape-rendering="geometricPrecision" font-family="sans-serif" transform="matrix(0.6378,0,0,0.6378,-95.6633,-56.7602)" stroke-linecap="butt">
          <text x="1190.8904" xml:space="preserve" y="506.8459" stroke="none">Taylor's Sci. Memoirs vol. 3, 1843</text>
        </g>
      </g>
      <g text-rendering="geometricPrecision" stroke-miterlimit="1.45" shape-rendering="geometricPrecision" transform="matrix(0.6378,0,0,0.6378,-95.6633,-56.7602)" stroke-linecap="butt">
        <rect x="1144.0593" y="469.3484" fill="none" width="289.9682" rx="4" ry="4" height="50.6346"/>
      </g>
    </g>
    <g id="y.node.9">
      <g fill="yellow" text-rendering="geometricPrecision" shape-rendering="geometricPrecision" transform="matrix(0.6378,0,0,0.6378,-95.6633,-56.7602)" stroke="yellow">
        <rect x="1154.2084" y="329.1256" width="244.9682" rx="4" ry="4" height="53.6975" stroke="none"/>
      </g>
      <g>
        <g font-size="16px" stroke-linecap="butt" transform="matrix(0.6378,0,0,0.6378,-95.6633,-56.7602)" text-rendering="geometricPrecision" font-family="sans-serif" shape-rendering="geometricPrecision" stroke-miterlimit="1.45">
          <text x="1234.337" xml:space="preserve" y="350.5943" stroke="none">Expression</text>
        </g>
      </g>
      <g>
        <g text-rendering="geometricPrecision" stroke-miterlimit="1.45" shape-rendering="geometricPrecision" font-family="sans-serif" transform="matrix(0.6378,0,0,0.6378,-95.6633,-56.7602)" stroke-linecap="butt">
          <text x="1201.8859" xml:space="preserve" y="366.1132" stroke="none">text of the Notes · Note G</text>
          <text x="1206.9542" xml:space="preserve" y="380.246" stroke="none">Menabrea's 1842 article</text>
        </g>
      </g>
      <g text-rendering="geometricPrecision" stroke-miterlimit="1.45" shape-rendering="geometricPrecision" transform="matrix(0.6378,0,0,0.6378,-95.6633,-56.7602)" stroke-linecap="butt">
        <rect x="1154.2084" y="329.1256" fill="none" width="244.9682" rx="4" ry="4" height="53.6975"/>
      </g>
    </g>
    <g id="y.node.10">
      <g fill="yellow" text-rendering="geometricPrecision" shape-rendering="geometricPrecision" transform="matrix(0.6378,0,0,0.6378,-95.6633,-56.7602)" stroke="yellow">
        <rect x="671.5288" y="328.7817" width="275.871" rx="4" ry="4" height="50.6346" stroke="none"/>
      </g>
      <g>
        <g font-size="16px" stroke-linecap="butt" transform="matrix(0.6378,0,0,0.6378,-95.6633,-56.7602)" text-rendering="geometricPrecision" font-family="sans-serif" shape-rendering="geometricPrecision" stroke-miterlimit="1.45">
          <text x="713.9019" xml:space="preserve" y="350.2505" stroke="none">expression cretion event</text>
        </g>
      </g>
      <g>
        <g text-rendering="geometricPrecision" stroke-miterlimit="1.45" shape-rendering="geometricPrecision" font-family="sans-serif" transform="matrix(0.6378,0,0,0.6378,-95.6633,-56.7602)" stroke-linecap="butt">
          <text x="731.3647" xml:space="preserve" y="363.6739" stroke="none">Translation event 1842–43</text>
          <text x="737.1333" xml:space="preserve" y="377.8067" stroke="none">(the centre of the model)</text>
        </g>
      </g>
      <g text-rendering="geometricPrecision" stroke-miterlimit="1.45" shape-rendering="geometricPrecision" transform="matrix(0.6378,0,0,0.6378,-95.6633,-56.7602)" stroke-linecap="butt">
        <rect x="671.5288" y="328.7817" fill="none" width="275.871" rx="4" ry="4" height="50.6346"/>
      </g>
    </g>
    <g id="y.node.11">
      <g fill="yellow" text-rendering="geometricPrecision" shape-rendering="geometricPrecision" transform="matrix(0.6378,0,0,0.6378,-95.6633,-56.7602)" stroke="yellow">
        <rect x="1189.0593" y="671.5568" width="244.9682" rx="4" ry="4" height="49.8795" stroke="none"/>
      </g>
      <g>
        <g font-size="16px" stroke-linecap="butt" transform="matrix(0.6378,0,0,0.6378,-95.6633,-56.7602)" text-rendering="geometricPrecision" font-family="sans-serif" shape-rendering="geometricPrecision" stroke-miterlimit="1.45">
          <text x="1269.6527" xml:space="preserve" y="693.0256" stroke="none">Production</text>
        </g>
      </g>
      <g>
        <g text-rendering="geometricPrecision" stroke-miterlimit="1.45" shape-rendering="geometricPrecision" font-family="sans-serif" transform="matrix(0.6378,0,0,0.6378,-95.6633,-56.7602)" stroke-linecap="butt">
          <text x="1221.2357" xml:space="preserve" y="712.9051" stroke="none">design of the Engine (Babbage)</text>
        </g>
      </g>
      <g text-rendering="geometricPrecision" stroke-miterlimit="1.45" shape-rendering="geometricPrecision" transform="matrix(0.6378,0,0,0.6378,-95.6633,-56.7602)" stroke-linecap="butt">
        <rect x="1189.0593" y="671.5568" fill="none" width="244.9682" rx="4" ry="4" height="49.8795"/>
      </g>
    </g>
    <g id="y.node.12">
      <g fill="yellow" text-rendering="geometricPrecision" shape-rendering="geometricPrecision" transform="matrix(0.6378,0,0,0.6378,-95.6633,-56.7602)" stroke="yellow">
        <rect x="850.4106" y="669.1716" width="244.9682" rx="4" ry="4" height="44" stroke="none"/>
      </g>
      <g>
        <g font-size="16px" stroke-linecap="butt" transform="matrix(0.6378,0,0,0.6378,-95.6633,-56.7602)" text-rendering="geometricPrecision" font-family="sans-serif" shape-rendering="geometricPrecision" stroke-miterlimit="1.45">
          <text x="899.3596" xml:space="preserve" y="690.6404" stroke="none">Subject or Concept</text>
        </g>
      </g>
      <g>
        <g text-rendering="geometricPrecision" stroke-miterlimit="1.45" shape-rendering="geometricPrecision" font-family="sans-serif" transform="matrix(0.6378,0,0,0.6378,-95.6633,-56.7602)" stroke-linecap="butt">
          <text x="903.6751" xml:space="preserve" y="709.092" stroke="none">Computing · Mathematics</text>
        </g>
      </g>
      <g text-rendering="geometricPrecision" stroke-miterlimit="1.45" shape-rendering="geometricPrecision" transform="matrix(0.6378,0,0,0.6378,-95.6633,-56.7602)" stroke-linecap="butt">
        <rect x="850.4106" y="669.1716" fill="none" width="244.9682" rx="4" ry="4" height="44"/>
      </g>
    </g>
    <g id="y.node.13">
      <g fill="rgb(231,230,230)" text-rendering="geometricPrecision" shape-rendering="geometricPrecision" transform="matrix(0.6378,0,0,0.6378,-95.6633,-56.7602)" stroke="rgb(231,230,230)">
        <rect x="207.1868" width="1238.9017" height="78.5507" y="778.8986" stroke="none"/>
      </g>
      <g/>
      <g>
        <g font-size="25px" stroke-linecap="butt" transform="matrix(0.6378,0,0,0.6378,-95.6633,-56.7602)" text-rendering="geometricPrecision" font-family="sans-serif" shape-rendering="geometricPrecision" stroke-miterlimit="1.45">
          <text x="435.317" xml:space="preserve" y="827.6222" stroke="none">External authority files — Wikidata · VIAF · GeoNames · LCSH / LCCN</text>
        </g>
      </g>
      <g>
        <g fill="white" text-rendering="geometricPrecision" shape-rendering="geometricPrecision" transform="matrix(0.6378,0,0,0.6378,-95.6633,-56.7602)" stroke="white">
          <rect x="192.4964" width="763.8271" height="34.6211" y="104.1046" stroke="none"/>
          <rect x="192.4964" y="104.1046" fill="none" width="763.8271" height="34.6211" stroke="black" stroke-miterlimit="1.6"/>
        </g>
        <g font-size="26px" stroke-linecap="butt" transform="matrix(0.6378,0,0,0.6378,-95.6633,-56.7602)" text-rendering="geometricPrecision" font-family="sans-serif" shape-rendering="geometricPrecision" stroke-miterlimit="1.45">
          <text x="194.4964" xml:space="preserve" y="131.2413" stroke="none">Theoritical model — Ada Lovelace LODLAM project (Graffoo)</text>
        </g>
      </g>
      <g text-rendering="geometricPrecision" stroke-miterlimit="1.45" shape-rendering="geometricPrecision" transform="matrix(0.6378,0,0,0.6378,-95.6633,-56.7602)" stroke-linecap="butt">
        <rect fill="none" x="207.1868" width="1238.9017" height="78.5507" y="778.8986"/>
      </g>
    </g>
    <g id="y.node.14">
      <g>
        <g font-size="16px" stroke-linecap="butt" transform="matrix(0.6378,0,0,0.6378,-95.6633,-56.7602)" text-rendering="geometricPrecision" font-family="sans-serif" shape-rendering="geometricPrecision" stroke-miterlimit="1.45">
          <text x="1195.5786" xml:space="preserve" y="490.8171" stroke="none">Physical Embodiment</text>
        </g>
      </g>
    </g>
    <g id="y.edge.3">
      <g text-rendering="geometricPrecision" stroke-miterlimit="1.45" shape-rendering="geometricPrecision" transform="matrix(0.6378,0,0,0.6378,-95.6633,-56.7602)" stroke-linecap="butt">
        <path fill="none" d="M452.1709 238.5986 L568.7751 238.5986 L568.7751 238.9761 L677.3792 238.9761"/>
        <path d="M685.3792 238.9761 L673.3792 233.9761 L676.3792 238.9761 L673.3792 243.9761 Z" stroke="none"/>
      </g>
      <g>
        <g stroke-linecap="butt" transform="matrix(0.6378,0,0,0.6378,-95.6633,-56.7602)" fill="white" text-rendering="geometricPrecision" shape-rendering="geometricPrecision" stroke="white" stroke-miterlimit="1.45">
          <rect x="546.3962" width="44.7578" height="18.1328" y="229.5322" stroke="none"/>
          <text fill="black" x="548.3962" xml:space="preserve" y="243.1337" font-family="sans-serif" stroke="none">at time</text>
        </g>
      </g>
    </g>
    <g onmouseout="HideTooltip(evt)" id="y.edge.0" onmousemove="ShowTooltip(evt)">
      <g text-rendering="geometricPrecision" stroke-miterlimit="1.45" stroke-dasharray="6,2" shape-rendering="geometricPrecision" transform="matrix(0.6378,0,0,0.6378,-95.6633,-56.7602)" stroke-linecap="butt">
        <path fill="none" d="M329.6709 263.8925 L329.6709 317.3369"/>
        <path d="M329.6709 325.3369 L334.6709 313.3369 L329.6709 316.3369 L324.6709 313.3369 Z" stroke="none"/>
      </g>
      <g/>
      <g>
        <g stroke-linecap="butt" transform="matrix(0.6378,0,0,0.6378,-95.6633,-56.7602)" fill="white" text-rendering="geometricPrecision" shape-rendering="geometricPrecision" stroke-dasharray="6,2" stroke="white" stroke-miterlimit="1.45">
          <rect x="281.5342" width="96.2734" height="18.1328" y="285.579" stroke="none"/>
        </g>
        <g text-rendering="geometricPrecision" stroke-miterlimit="1.45" shape-rendering="geometricPrecision" font-family="sans-serif" transform="matrix(0.6378,0,0,0.6378,-95.6633,-56.7602)" stroke-linecap="butt">
          <text x="283.5342" xml:space="preserve" y="299.1806" stroke="none">rdfs:subClassOf</text>
        </g>
      </g>
    </g>
    <g id="y.edge.1">
      <g text-rendering="geometricPrecision" stroke-miterlimit="1.45" shape-rendering="geometricPrecision" transform="matrix(0.6378,0,0,0.6378,-95.6633,-56.7602)" stroke-linecap="butt">
        <path fill="none" d="M329.6709 382.8406 L329.6709 448.317"/>
        <path d="M329.6709 456.317 L334.6709 444.317 L329.6709 447.317 L324.6709 444.317 Z" stroke="none"/>
      </g>
      <g>
        <g stroke-linecap="butt" transform="matrix(0.6378,0,0,0.6378,-95.6633,-56.7602)" fill="white" text-rendering="geometricPrecision" shape-rendering="geometricPrecision" stroke="white" stroke-miterlimit="1.45">
          <rect x="267.0198" width="130.6211" height="18.1328" y="403.7852" stroke="none"/>
          <text fill="black" x="269.0198" xml:space="preserve" y="417.3867" font-family="sans-serif" stroke="none">Event or Activity type </text>
        </g>
      </g>
    </g>
    <g id="y.edge.5">
      <g text-rendering="geometricPrecision" stroke-miterlimit="1.45" shape-rendering="geometricPrecision" transform="matrix(0.6378,0,0,0.6378,-95.6633,-56.7602)" stroke-linecap="butt">
        <path fill="none" d="M452.1624 258.033 L590.2632 258.033 L594.6382 258.658 L597.7632 260.533 L599.6382 263.658 L600.2632 268.033 L600.2632 572.8638 L600.8882 577.2388 L602.7632 580.3638 L605.8882 582.2388 L610.2632 582.8638 L685.0535 582.8638"/>
        <path d="M693.0535 582.8638 L681.0535 577.8638 L684.0535 582.8638 L681.0535 587.8638 Z" stroke="none"/>
      </g>
      <g>
        <g stroke-linecap="butt" transform="matrix(0.6378,0,0,0.6378,-95.6633,-56.7602)" fill="white" text-rendering="geometricPrecision" shape-rendering="geometricPrecision" stroke="white" stroke-miterlimit="1.45">
          <rect x="628.0348" width="4" height="4" y="534.5815" stroke="none"/>
        </g>
      </g>
      <g>
        <g stroke-linecap="butt" transform="matrix(0.6378,0,0,0.6378,-95.6633,-56.7602)" fill="white" text-rendering="geometricPrecision" shape-rendering="geometricPrecision" stroke="white" stroke-miterlimit="1.45">
          <rect x="551.9599" width="129.7129" height="32.2656" y="504.3303" stroke="none"/>
          <text fill="black" x="553.96" xml:space="preserve" y="517.9318" font-family="sans-serif" stroke="none">Activity that braught/</text>
          <text fill="black" x="568.5996" xml:space="preserve" y="532.0646" font-family="sans-serif" stroke="none">Activity of Death</text>
        </g>
      </g>
      <g>
        <g stroke-linecap="butt" transform="matrix(0.6378,0,0,0.6378,-95.6633,-56.7602) translate(562.4649,535.6733)" fill="white" text-rendering="geometricPrecision" shape-rendering="geometricPrecision" stroke="white" stroke-miterlimit="1.45">
          <rect x="0" width="88.7207" height="32.2656" y="0" stroke="none"/>
          <text fill="black" x="2" xml:space="preserve" y="13.6016" font-family="sans-serif" stroke="none">Father of Ada/</text>
          <text fill="black" x="2.8232" xml:space="preserve" y="27.7344" font-family="sans-serif" stroke="none">Mother of Ada</text>
        </g>
      </g>
    </g>
    <g id="y.edge.19">
      <g text-rendering="geometricPrecision" stroke-miterlimit="1.45" shape-rendering="geometricPrecision" transform="matrix(0.6378,0,0,0.6378,-95.6633,-56.7602)" stroke-linecap="butt">
        <path fill="none" d="M462.4796 354.099 L491.0835 354.099 L495.4585 354.724 L498.5835 356.599 L500.4585 359.724 L501.0835 364.099 L501.0835 601.9286 L501.7085 606.3036 L503.5835 609.4286 L506.7085 611.3036 L511.0835 611.9286 L685.0342 611.9286"/>
      </g>
      <g text-rendering="geometricPrecision" stroke-miterlimit="1.45" shape-rendering="geometricPrecision" transform="matrix(0.6378,0,0,0.6378,-95.6633,-56.7602)" stroke-linecap="butt">
        <path d="M693.0342 611.9286 L681.0342 606.9286 L684.0342 611.9286 L681.0342 616.9286 Z" stroke="none"/>
      </g>
      <g>
        <g stroke-linecap="butt" transform="matrix(0.6378,0,0,0.6378,-95.6633,-56.7602)" fill="white" text-rendering="geometricPrecision" shape-rendering="geometricPrecision" stroke="white" stroke-miterlimit="1.45">
          <rect x="566.9753" width="98.4941" height="32.2656" y="602.8638" stroke="none"/>
          <text fill="rgb(0,51,0)" x="568.9753" xml:space="preserve" y="616.4654" font-family="sans-serif" stroke="none">had participant/</text>
          <text fill="rgb(0,51,0)" x="579.4343" xml:space="preserve" y="630.5982" font-family="sans-serif" stroke="none">carried ot by</text>
        </g>
      </g>
    </g>
    <g id="y.edge.2">
      <g text-rendering="geometricPrecision" stroke-miterlimit="1.45" shape-rendering="geometricPrecision" transform="matrix(0.6378,0,0,0.6378,-95.6633,-56.7602)" stroke-linecap="butt">
        <path fill="none" d="M202.1644 354.099 L192.1756 354.099 L187.8055 354.724 L184.684 356.599 L182.8111 359.724 L182.1868 364.099 L182.1868 636.7979 L182.7188 641.1729 L184.3149 644.2979 L186.975 646.1729 L190.6992 646.7979 L199.2115 646.7979"/>
        <path d="M207.2115 646.7979 L195.2115 641.7979 L198.2115 646.7979 L195.2115 651.7979 Z" stroke="none"/>
      </g>
      <g>
        <g stroke-linecap="butt" transform="matrix(0.6378,0,0,0.6378,-95.6633,-56.7602)" fill="white" text-rendering="geometricPrecision" shape-rendering="geometricPrecision" stroke="white" stroke-miterlimit="1.45">
          <rect x="165.3596" width="78.5137" height="18.1328" y="562.1447" stroke="none"/>
          <text fill="black" x="167.3596" xml:space="preserve" y="575.7462" font-family="sans-serif" stroke="none">took Place at</text>
        </g>
      </g>
      <g/>
    </g>
    <g id="y.edge.8">
      <g text-rendering="geometricPrecision" stroke-miterlimit="1.45" shape-rendering="geometricPrecision" transform="matrix(0.6378,0,0,0.6378,-95.6633,-56.7602)" stroke-linecap="butt">
        <path fill="none" d="M1276.6925 263.9125 L1276.6925 321.1379"/>
        <path d="M1276.6925 329.1379 L1281.6925 317.1379 L1276.6925 320.1379 L1271.6925 317.1379 Z" stroke="none"/>
      </g>
      <g>
        <g stroke-linecap="butt" transform="matrix(0.6378,0,0,0.6378,-95.6633,-56.7602)" fill="white" text-rendering="geometricPrecision" shape-rendering="geometricPrecision" stroke="white" stroke-miterlimit="1.45">
          <rect x="1238.6807" width="76.0234" height="18.1328" y="287.4543" stroke="none"/>
          <text fill="black" x="1240.6808" xml:space="preserve" y="301.0559" font-family="sans-serif" stroke="none">represent as</text>
        </g>
      </g>
    </g>
    <g id="y.edge.12">
      <g text-rendering="geometricPrecision" stroke-miterlimit="1.45" shape-rendering="geometricPrecision" transform="matrix(0.6378,0,0,0.6378,-95.6633,-56.7602)" stroke-linecap="butt">
        <path fill="none" d="M1369.8488 329.0865 L1369.8488 319.106 L1370.4738 314.7396 L1372.3488 311.6207 L1375.4738 309.7493 L1379.8488 309.1255 L1453.005 309.1255 L1457.38 309.7505 L1460.505 311.6255 L1462.38 314.7505 L1463.005 319.1255 L1463.005 345.9743 L1462.38 350.3493 L1460.505 353.4743 L1457.38 355.3493 L1453.005 355.9743 L1407.1982 355.9743"/>
        <path d="M1399.1982 355.9743 L1411.1982 360.9743 L1408.1982 355.9743 L1411.1982 350.9743 Z" stroke="none"/>
      </g>
      <g>
        <g stroke-linecap="butt" transform="matrix(0.6378,0,0,0.6378,-95.6633,-56.7602)" fill="white" text-rendering="geometricPrecision" shape-rendering="geometricPrecision" stroke="white" stroke-miterlimit="1.45">
          <rect x="1430.8204" width="99.8711" height="32.2656" y="303.0109" stroke="none"/>
          <text fill="black" x="1432.8204" xml:space="preserve" y="316.6125" font-family="sans-serif" stroke="none">is Derived from/</text>
          <text fill="black" x="1456.9728" xml:space="preserve" y="330.7453" font-family="sans-serif" stroke="none">has part</text>
        </g>
      </g>
    </g>
    <g id="y.edge.13">
      <g text-rendering="geometricPrecision" stroke-miterlimit="1.45" shape-rendering="geometricPrecision" transform="matrix(0.6378,0,0,0.6378,-95.6633,-56.7602)" stroke-linecap="butt">
        <path fill="none" d="M1399.1536 372.0007 L1453.005 372.0007 L1457.38 372.6257 L1460.505 374.5007 L1462.38 377.6257 L1463.005 382.0007 L1463.005 566.5959 L1462.38 570.9709 L1460.505 574.0959 L1457.38 575.9709 L1453.005 576.5959 L1427.2173 576.5959"/>
        <path d="M1419.2173 576.5959 L1431.2173 581.5959 L1428.2173 576.5959 L1431.2173 571.5959 Z" stroke="none"/>
      </g>
      <g>
        <g stroke-linecap="butt" transform="matrix(0.6378,0,0,0.6378,-95.6633,-56.7602)" fill="white" text-rendering="geometricPrecision" shape-rendering="geometricPrecision" stroke="white" stroke-miterlimit="1.45">
          <rect x="1440.4781" width="63.4844" height="18.1328" y="429.7668" stroke="none"/>
          <text fill="black" x="1442.4781" xml:space="preserve" y="443.3684" font-family="sans-serif" stroke="none">Expressed</text>
        </g>
      </g>
    </g>
    <g id="y.edge.4">
      <g text-rendering="geometricPrecision" stroke-miterlimit="1.45" shape-rendering="geometricPrecision" transform="matrix(0.6378,0,0,0.6378,-95.6633,-56.7602)" stroke-linecap="butt">
        <path fill="none" d="M809.4644 328.7754 L809.4644 271.9252"/>
        <path d="M809.4644 263.9252 L804.4644 275.9252 L809.4644 272.9252 L814.4644 275.9252 Z" stroke="none"/>
      </g>
      <g>
        <g stroke-linecap="butt" transform="matrix(0.6378,0,0,0.6378,-95.6633,-56.7602)" fill="white" text-rendering="geometricPrecision" shape-rendering="geometricPrecision" stroke="white" stroke-miterlimit="1.45">
          <rect x="783.6264" width="65.9043" height="18.1328" y="290.1406" stroke="none"/>
          <text fill="black" x="785.6263" xml:space="preserve" y="303.7422" font-family="sans-serif" stroke="none">taken time</text>
        </g>
      </g>
    </g>
    <g id="y.edge.6">
      <g text-rendering="geometricPrecision" stroke-miterlimit="1.45" shape-rendering="geometricPrecision" transform="matrix(0.6378,0,0,0.6378,-95.6633,-56.7602)" stroke-linecap="butt">
        <path fill="none" d="M809.4644 379.3969 L809.4644 564.2902"/>
        <path d="M809.4644 572.2902 L814.4644 560.2902 L809.4644 563.2902 L804.4644 560.2902 Z" stroke="none"/>
      </g>
      <g>
        <g stroke-linecap="butt" transform="matrix(0.6378,0,0,0.6378,-95.6633,-56.7602)" fill="white" text-rendering="geometricPrecision" shape-rendering="geometricPrecision" stroke="white" stroke-miterlimit="1.45">
          <rect x="775.1323" width="68.6641" height="18.1328" y="493.2892" stroke="none"/>
          <text fill="black" x="777.1323" xml:space="preserve" y="506.8907" font-family="sans-serif" stroke="none">perform by</text>
        </g>
      </g>
    </g>
    <g id="y.edge.7">
      <g text-rendering="geometricPrecision" stroke-miterlimit="1.45" shape-rendering="geometricPrecision" transform="matrix(0.6378,0,0,0.6378,-95.6633,-56.7602)" stroke-linecap="butt">
        <path fill="none" d="M777.1007 379.3936 L777.1007 451.6865 L776.4757 456.0615 L774.6007 459.1865 L771.4757 461.0615 L767.1007 461.6865 L460.1515 461.6865"/>
        <path d="M452.1515 461.6865 L464.1515 466.6865 L461.1515 461.6865 L464.1515 456.6865 Z" stroke="none"/>
      </g>
      <g>
        <g stroke-linecap="butt" transform="matrix(0.6378,0,0,0.6378,-95.6633,-56.7602)" fill="white" text-rendering="geometricPrecision" shape-rendering="geometricPrecision" stroke="white" stroke-miterlimit="1.45">
          <rect x="648.3805" width="4" height="4" y="459.6865" stroke="none"/>
        </g>
      </g>
      <g>
        <g stroke-linecap="butt" transform="matrix(0.6378,0,0,0.6378,-95.6633,-56.7602)" fill="white" text-rendering="geometricPrecision" shape-rendering="geometricPrecision" stroke="white" stroke-miterlimit="1.45">
          <rect x="622.7556" width="52.9844" height="18.1328" y="452.6201" stroke="none"/>
          <text fill="black" x="624.7556" xml:space="preserve" y="466.2216" font-family="sans-serif" stroke="none">has type</text>
        </g>
      </g>
    </g>
    <g id="y.edge.9">
      <g text-rendering="geometricPrecision" stroke-miterlimit="1.45" shape-rendering="geometricPrecision" transform="matrix(0.6378,0,0,0.6378,-95.6633,-56.7602)" stroke-linecap="butt">
        <path fill="none" d="M947.4027 354.099 L1146.2137 354.099"/>
        <path d="M1154.2137 354.099 L1142.2137 349.099 L1145.2137 354.099 L1142.2137 359.099 Z" stroke="none"/>
      </g>
      <g>
        <g stroke-linecap="butt" transform="matrix(0.6378,0,0,0.6378,-95.6633,-56.7602)" fill="white" text-rendering="geometricPrecision" shape-rendering="geometricPrecision" stroke="white" stroke-miterlimit="1.45">
          <rect x="1061.4319" width="49.252" height="18.1328" y="345.0326" stroke="none"/>
          <text fill="black" x="1063.4319" xml:space="preserve" y="358.6342" font-family="sans-serif" stroke="none">Created</text>
        </g>
      </g>
    </g>
    <g id="y.edge.10">
      <g text-rendering="geometricPrecision" stroke-miterlimit="1.45" shape-rendering="geometricPrecision" transform="matrix(0.6378,0,0,0.6378,-95.6633,-56.7602)" stroke-linecap="butt">
        <path fill="none" d="M911.7444 379.3914 L911.7444 484.6657 L912.3694 489.0407 L914.2444 492.1657 L917.3694 494.0407 L921.7444 494.6657 L1136.1021 494.6657"/>
        <path d="M1144.1021 494.6657 L1132.1021 489.6657 L1135.1021 494.6657 L1132.1021 499.6657 Z" stroke="none"/>
      </g>
      <g>
        <g stroke-linecap="butt" transform="matrix(0.6378,0,0,0.6378,-95.6633,-56.7602)" fill="white" text-rendering="geometricPrecision" shape-rendering="geometricPrecision" stroke="white" stroke-miterlimit="1.45">
          <rect x="993.9593" width="126.4199" height="18.1328" y="485.5993" stroke="none"/>
          <text fill="black" x="995.9593" xml:space="preserve" y="499.2008" font-family="sans-serif" stroke="none">Created or published</text>
        </g>
      </g>
    </g>
    <g id="y.edge.14">
      <g text-rendering="geometricPrecision" stroke-miterlimit="1.45" shape-rendering="geometricPrecision" transform="matrix(0.6378,0,0,0.6378,-95.6633,-56.7602)" stroke-linecap="butt">
        <path fill="none" d="M1311.5433 671.5856 L1311.5433 611.4509"/>
        <path d="M1311.5433 603.4509 L1306.5433 615.4509 L1311.5433 612.4509 L1316.5433 615.4509 Z" stroke="none"/>
      </g>
      <g>
        <g stroke-linecap="butt" transform="matrix(0.6378,0,0,0.6378,-95.6633,-56.7602)" fill="white" text-rendering="geometricPrecision" shape-rendering="geometricPrecision" stroke="white" stroke-miterlimit="1.45">
          <rect x="1282.3939" width="58.2988" height="18.1328" y="628.4343" stroke="none"/>
          <text fill="black" x="1284.3939" xml:space="preserve" y="642.0359" font-family="sans-serif" stroke="none">Produced</text>
        </g>
      </g>
    </g>
    <g id="y.edge.11">
      <g text-rendering="geometricPrecision" stroke-miterlimit="1.45" shape-rendering="geometricPrecision" transform="matrix(0.6378,0,0,0.6378,-95.6633,-56.7602)" stroke-linecap="butt">
        <path fill="none" d="M1154.2245 373.4347 L994.453 373.4347 L990.078 374.0597 L986.953 375.9347 L985.078 379.0597 L984.453 383.4347 L984.453 661.1798"/>
        <path d="M984.453 669.1798 L989.453 657.1798 L984.453 660.1798 L979.453 657.1798 Z" stroke="none"/>
      </g>
      <g>
        <g stroke-linecap="butt" transform="matrix(0.6378,0,0,0.6378,-95.6633,-56.7602)" fill="white" text-rendering="geometricPrecision" shape-rendering="geometricPrecision" stroke="white" stroke-miterlimit="1.45">
          <rect x="916.5585" width="135.7891" height="18.1328" y="628.2832" stroke="none"/>
          <text fill="black" x="918.5585" xml:space="preserve" y="641.8847" font-family="sans-serif" stroke="none">has subject or concept</text>
        </g>
      </g>
    </g>
    <g id="y.edge.15">
      <g text-rendering="geometricPrecision" stroke-miterlimit="1.45" shape-rendering="geometricPrecision" transform="matrix(0.6378,0,0,0.6378,-95.6633,-56.7602)" stroke-linecap="butt">
        <path fill="none" d="M329.6709 672.111 L329.6709 770.9124"/>
        <path d="M329.6709 778.9124 L334.6709 766.9124 L329.6709 769.9124 L324.6709 766.9124 Z" stroke="none"/>
      </g>
      <g>
        <g stroke-linecap="butt" transform="matrix(0.6378,0,0,0.6378,-95.6633,-56.7602)" fill="white" text-rendering="geometricPrecision" shape-rendering="geometricPrecision" stroke="white" stroke-miterlimit="1.45">
          <rect x="289.7812" width="79.7793" height="18.1328" y="716.4405" stroke="none"/>
          <text fill="black" x="291.7812" xml:space="preserve" y="730.042" font-family="sans-serif" stroke="none">Represent by</text>
        </g>
      </g>
    </g>
    <g id="y.edge.16">
      <g text-rendering="geometricPrecision" stroke-miterlimit="1.45" shape-rendering="geometricPrecision" transform="matrix(0.6378,0,0,0.6378,-95.6633,-56.7602)" stroke-linecap="butt">
        <path fill="none" d="M746.9153 622.9109 L746.9153 770.9025"/>
        <path d="M746.9153 778.9025 L751.9153 766.9025 L746.9153 769.9025 L741.9153 766.9025 Z" stroke="none"/>
      </g>
      <g>
        <g stroke-linecap="butt" transform="matrix(0.6378,0,0,0.6378,-95.6633,-56.7602)" fill="white" text-rendering="geometricPrecision" shape-rendering="geometricPrecision" stroke="white" stroke-miterlimit="1.45">
          <rect x="709.4888" width="79.7793" height="18.1328" y="736.9687" stroke="none"/>
          <text fill="black" x="711.4888" xml:space="preserve" y="750.5703" font-family="sans-serif" stroke="none">Represent by</text>
        </g>
      </g>
    </g>
    <g id="y.edge.17">
      <g text-rendering="geometricPrecision" stroke-miterlimit="1.45" shape-rendering="geometricPrecision" transform="matrix(0.6378,0,0,0.6378,-95.6633,-56.7602)" stroke-linecap="butt">
        <path fill="none" d="M986.3812 713.1552 L986.3812 770.9201"/>
        <path d="M986.3812 778.9201 L991.3812 766.9201 L986.3812 769.9201 L981.3812 766.9201 Z" stroke="none"/>
      </g>
      <g>
        <g stroke-linecap="butt" transform="matrix(0.6378,0,0,0.6378,-95.6633,-56.7602)" fill="white" text-rendering="geometricPrecision" shape-rendering="geometricPrecision" stroke="white" stroke-miterlimit="1.45">
          <rect x="946.4916" width="79.7793" height="18.1328" y="736.9687" stroke="none"/>
          <text fill="black" x="948.4916" xml:space="preserve" y="750.5703" font-family="sans-serif" stroke="none">Represent by</text>
        </g>
      </g>
    </g>
    <g id="y.edge.18">
      <g text-rendering="geometricPrecision" stroke-miterlimit="1.45" shape-rendering="geometricPrecision" transform="matrix(0.6378,0,0,0.6378,-95.6633,-56.7602)" stroke-linecap="butt">
        <path fill="none" d="M1182.3793 603.4609 L1182.3793 770.885"/>
        <path d="M1182.3793 778.885 L1187.3793 766.885 L1182.3793 769.885 L1177.3793 766.885 Z" stroke="none"/>
      </g>
      <g>
        <g stroke-linecap="butt" transform="matrix(0.6378,0,0,0.6378,-95.6633,-56.7602)" fill="white" text-rendering="geometricPrecision" shape-rendering="geometricPrecision" stroke="white" stroke-miterlimit="1.45">
          <rect x="1140.6257" width="79.7793" height="18.1328" y="741.101" stroke="none"/>
          <text fill="black" x="1142.6256" xml:space="preserve" y="754.7026" font-family="sans-serif" stroke="none">Represent by</text>
        </g>
      </g>
    </g>
    <g visibility="hidden" id="tooltip.y.edge.0" pointer-events="none">
      <g fill="rgb(255,255,204)" text-rendering="geometricPrecision" font-size="11px" shape-rendering="geometricPrecision" font-family="'Lucida Grande'" stroke="rgb(255,255,204)">
        <rect x="0" width="93" height="18" y="0" clip-path="url(#clipPath3)" stroke="none"/>
        <text fill="black" x="3" xml:space="preserve" y="13" clip-path="url(#clipPath3)" stroke="none">rdfs:subClassOf</text>
      </g>
    </g>
  </g>
</svg>
